<?xml version="1.0" standalone="no"?>
<!DOCTYPE svg PUBLIC "-//W3C//DTD SVG 20010904//EN"
 "http://www.w3.org/TR/2001/REC-SVG-20010904/DTD/svg10.dtd">
<svg version="1.0" xmlns="http://www.w3.org/2000/svg"
 width="512.000000pt" height="512.000000pt" viewBox="0 0 512.000000 512.000000"
 preserveAspectRatio="xMidYMid meet">
<metadata>
Created by potrace 1.14, written by Peter Selinger 2001-2017
</metadata>
<g transform="translate(0.000000,512.000000) scale(0.100000,-0.100000)"
fill="#000000" stroke="none">
<path d="M4895 5110 c3 -5 1 -10 -4 -10 -15 0 -14 -33 1 -48 7 -7 27 -9 55 -5
31 4 43 2 43 -7 0 -9 3 -10 14 -1 7 6 32 13 55 16 52 5 61 11 61 41 l0 24
-116 0 c-74 0 -113 -4 -109 -10z"/>
<path d="M2645 4890 c-4 -6 5 -10 22 -11 26 -1 26 -2 5 -7 -21 -7 -22 -8 -7
-30 9 -12 21 -20 26 -16 5 3 34 -2 65 -12 30 -9 57 -14 60 -12 3 3 35 -5 72
-19 75 -27 143 -40 127 -25 -16 15 -221 71 -308 84 -16 3 -17 5 -3 23 13 17
17 18 25 5 8 -12 13 -12 22 -3 17 17 13 19 -48 27 -32 4 -54 3 -58 -4z"/>
<path d="M2803 4893 c4 -3 33 -8 64 -9 39 -2 53 0 43 6 -17 11 -117 14 -107 3z"/>
<path d="M2400 4869 c13 -9 12 -10 -3 -5 -24 8 -237 -38 -317 -69 -96 -36
-210 -81 -250 -98 -19 -9 -62 -38 -95 -66 -32 -28 -63 -51 -68 -51 -14 0 -191
-179 -207 -210 -8 -15 -28 -44 -43 -64 -16 -19 -35 -61 -44 -93 -8 -31 -23
-69 -34 -84 -10 -15 -19 -31 -19 -36 0 -19 -57 -63 -89 -69 -28 -6 -37 -2 -70
30 -77 75 -160 81 -266 19 -39 -23 -92 -46 -120 -53 -44 -10 -56 -9 -100 8
-28 11 -54 29 -60 40 -10 22 -24 31 -87 56 -48 19 -57 51 -35 132 26 100 74
191 139 266 13 15 31 43 41 61 l19 34 -30 49 c-16 27 -33 66 -36 86 -7 38 -23
58 -35 42 -3 -5 -24 -10 -47 -11 -56 -2 -118 -37 -162 -90 -59 -72 -113 -124
-123 -117 -5 3 -10 0 -10 -5 -1 -6 -2 -14 -4 -18 -22 -83 -16 -75 -183 -231
l-62 -59 0 -466 c0 -358 3 -468 12 -473 7 -5 37 -9 66 -11 55 -3 115 -30 126
-58 14 -37 15 -116 3 -173 -17 -79 -12 -115 14 -107 12 4 19 1 20 -7 0 -7 12
12 26 42 14 30 25 65 24 77 -4 41 40 165 68 194 23 23 39 28 102 34 68 6 81 4
139 -20 57 -24 73 -27 133 -21 81 7 104 20 118 66 13 39 48 74 96 96 47 20 60
18 80 -16 21 -37 53 -47 93 -30 36 15 65 9 115 -26 34 -23 43 -25 73 -16 47
15 67 4 96 -50 40 -75 60 -170 46 -214 -11 -33 -11 -39 8 -53 11 -9 23 -29 26
-46 9 -49 -8 -383 -20 -395 -8 -8 -24 -6 -57 10 -62 29 -88 24 -105 -20 -10
-26 -10 -43 -3 -63 9 -24 16 -27 54 -27 24 0 58 5 76 11 26 9 35 8 50 -5 23
-21 43 -110 47 -208 2 -64 0 -78 -13 -78 -23 0 -121 30 -201 61 -40 16 -78 27
-83 24 -13 -8 -11 -69 3 -100 10 -23 21 -30 42 -26 16 3 35 -21 29 -37 -4 -9
-15 -29 -26 -44 -17 -23 -19 -38 -14 -101 6 -85 30 -141 77 -181 24 -20 36
-24 49 -16 56 29 78 153 46 254 -10 31 -16 59 -13 61 8 8 82 15 100 9 9 -3 27
-21 39 -40 22 -37 68 -200 69 -245 0 -15 13 -57 29 -95 16 -38 40 -104 55
-147 14 -43 41 -101 59 -130 19 -29 40 -68 47 -87 16 -42 43 -81 88 -126 l32
-33 -59 -41 c-33 -22 -66 -40 -74 -40 -8 0 -41 -14 -73 -31 -76 -40 -166 -72
-173 -61 -15 24 -69 89 -93 114 -29 30 -74 37 -123 18 -23 -9 -32 -6 -59 17
-17 16 -48 39 -69 53 -70 47 -72 134 -6 234 34 50 35 64 22 307 -13 235 -32
269 -135 233 -60 -20 -74 -46 -59 -113 15 -69 14 -130 -3 -221 -8 -41 -14
-104 -15 -140 -1 -35 -4 -66 -7 -69 -2 -3 -44 -5 -91 -6 -65 0 -95 4 -119 17
-33 18 -56 16 -84 -7 -8 -7 -30 -17 -48 -23 -30 -10 -35 -8 -68 20 -41 36 -63
76 -93 173 -33 103 -58 133 -185 232 -37 29 -86 58 -109 64 -96 26 -110 33
-153 70 -25 21 -49 39 -55 39 -5 0 -9 -185 -9 -474 l0 -474 28 -10 c33 -11 83
-7 92 9 13 20 94 23 134 4 20 -10 36 -21 36 -26 0 -5 8 -9 18 -10 9 0 12 -3 6
-5 -18 -7 -2 -58 49 -163 26 -52 47 -98 47 -102 0 -4 -28 -21 -62 -38 -78 -37
-203 -116 -285 -179 l-62 -47 0 -267 -1 -268 2560 0 2560 0 0 624 c0 354 -4
635 -9 649 -5 13 -23 30 -40 37 -42 17 -40 40 9 124 l40 68 0 240 c0 131 -4
237 -8 234 -15 -9 -28 10 -51 79 -29 87 -62 117 -150 140 -36 9 -95 29 -131
45 -96 42 -257 100 -276 100 -9 0 -42 12 -74 26 -68 30 -99 29 -119 -8 -14
-24 -13 -37 8 -140 22 -109 22 -116 7 -198 -21 -111 -23 -165 -13 -341 8 -129
7 -153 -9 -204 -23 -72 -36 -78 -179 -78 -98 0 -117 3 -175 28 -57 24 -70 26
-108 17 -23 -5 -44 -6 -47 -3 -6 11 14 89 30 122 26 49 65 165 65 191 0 14 7
45 15 68 8 24 16 71 18 106 1 35 5 64 8 64 11 0 17 64 8 88 -15 40 -19 81 -9
87 6 4 10 -6 10 -23 0 -29 1 -30 33 -23 89 21 151 102 126 168 -9 25 -10 25
-29 8 -17 -16 -18 -19 -4 -41 14 -21 14 -24 -5 -36 -12 -7 -21 -17 -21 -22 0
-14 -46 -52 -57 -49 -6 2 -9 12 -6 23 3 10 -4 27 -17 40 -17 17 -19 24 -10 30
7 4 10 15 7 24 -8 20 23 17 49 -4 14 -12 16 -12 10 -1 -5 8 -3 16 4 21 10 6 7
15 -13 39 -21 25 -25 41 -26 91 0 34 -3 69 -6 80 -3 10 -1 21 5 25 6 4 10 -5
11 -22 1 -19 3 -22 6 -9 3 10 -1 38 -7 62 -7 24 -9 51 -6 60 5 14 10 11 24
-17 18 -35 46 -49 65 -30 7 7 6 16 -5 28 -14 16 -31 55 -33 74 0 4 -12 19 -27
34 -25 25 -26 31 -22 93 3 37 9 85 14 107 6 25 5 44 -1 49 -15 16 -10 30 6 16
13 -11 15 -8 15 18 0 26 3 30 18 25 14 -6 15 -4 5 9 -30 36 37 38 90 3 21 -15
48 -47 62 -75 13 -27 29 -51 35 -55 18 -11 30 44 30 136 l0 89 31 19 c18 11
53 22 78 26 55 7 64 12 80 43 18 35 25 176 12 277 -9 77 -14 93 -36 113 -40
34 -125 31 -196 -7 -31 -17 -79 -32 -112 -36 -32 -4 -60 -13 -63 -19 -3 -10
-12 -157 -13 -239 -1 -21 -5 -36 -10 -32 -5 3 -9 28 -8 55 1 28 -2 50 -7 50
-5 0 -7 2 -4 6 3 3 1 22 -4 42 -5 20 -11 66 -14 102 -3 35 -10 70 -15 76 -7 8
-6 13 2 16 9 3 9 9 0 26 -9 16 -9 22 0 22 6 0 9 7 5 15 -3 9 0 15 9 15 21 0
18 24 -5 45 -21 19 -26 50 -10 60 7 4 6 14 -2 28 -6 12 -11 40 -11 62 1 24 -5
47 -15 58 -12 14 -13 20 -4 26 13 8 11 55 -6 136 -10 50 -64 157 -103 206 -16
20 -29 42 -29 48 0 6 -4 19 -9 29 -48 99 -78 151 -97 173 -13 14 -24 32 -24
42 0 9 -6 20 -13 24 -8 4 -22 20 -31 35 -10 15 -23 25 -31 22 -7 -3 -28 2 -47
12 -18 10 -40 18 -49 19 -9 1 -30 11 -46 23 -33 24 -53 28 -53 12 0 -5 -24 -1
-52 10 -38 14 -47 16 -34 5 11 -8 23 -15 27 -15 4 0 9 -6 12 -14 5 -12 0 -12
-31 0 l-37 15 25 -21 c14 -11 46 -32 73 -46 26 -13 47 -29 47 -34 0 -10 -27
-3 -49 14 -11 8 -13 8 -7 -1 15 -25 -23 -13 -69 23 -26 19 -49 34 -51 31 -2
-2 9 -14 26 -27 33 -25 38 -40 15 -40 -8 0 -15 4 -15 10 0 10 -121 70 -182 90
-21 6 -42 9 -48 5 -5 -3 -10 -1 -10 5 0 6 -5 8 -11 4 -14 -8 8 -24 34 -24 10
0 27 -9 39 -19 11 -11 26 -17 34 -14 14 5 75 -27 69 -37 -2 -4 12 -21 31 -39
38 -37 39 -53 0 -28 -17 12 -26 13 -28 5 -3 -8 -18 -5 -46 10 -24 12 -48 22
-55 22 -7 0 -23 12 -36 25 -13 14 -32 25 -42 25 -23 0 -23 -3 -3 -38 13 -22
10 -20 -19 10 -23 24 -39 33 -43 26 -4 -6 4 -21 17 -33 13 -11 33 -32 44 -46
l20 -24 -22 19 c-18 15 -23 16 -23 5 0 -8 5 -20 12 -27 9 -9 9 -12 0 -12 -7 0
-12 4 -12 10 0 5 -17 17 -37 25 -21 9 -40 19 -43 23 -20 26 -85 72 -96 68 -8
-3 -14 -1 -14 3 0 5 -6 11 -14 14 -18 7 -10 -30 12 -56 13 -15 10 -15 -26 3
-123 59 -117 57 -131 42 -8 -8 -22 -11 -35 -8 -11 4 -34 9 -51 12 l-30 6 25
-14 c48 -27 81 -51 76 -55 -2 -3 -15 1 -27 8 -13 6 -45 13 -73 15 -27 2 -58 6
-68 10 -27 8 -22 -11 6 -24 15 -7 27 -7 33 -1 6 6 14 4 23 -6 7 -8 9 -15 4
-15 -5 0 2 -9 16 -20 l25 -20 -33 11 c-17 6 -35 15 -38 20 -3 5 -29 9 -59 9
-29 0 -55 4 -57 9 -3 10 -148 20 -148 10 0 -3 28 -9 63 -12 72 -7 142 -26 132
-35 -3 -3 -23 -5 -43 -4 l-37 2 55 -29 c30 -17 61 -30 69 -31 18 0 40 -31 34
-47 -3 -8 -12 -9 -28 -3 -13 5 -26 6 -31 2 -4 -4 -4 -1 0 5 5 9 -1 11 -22 7
-16 -3 -39 -1 -51 6 -12 6 -50 13 -84 15 -34 2 -52 1 -39 -2 12 -2 22 -9 22
-14 0 -5 10 -9 23 -9 25 0 66 -25 56 -34 -3 -4 -25 1 -49 9 -24 8 -45 13 -47
11 -2 -2 26 -21 64 -42 64 -36 73 -38 156 -38 70 -1 90 -4 97 -17 6 -10 5 -16
-3 -17 -7 0 -32 -5 -57 -10 -49 -10 -41 -17 32 -27 28 -3 49 -12 52 -21 3 -8
10 -12 16 -9 6 4 7 11 4 17 -5 7 -2 9 8 5 9 -3 21 0 27 6 8 8 11 8 11 -2 0
-16 40 -50 58 -51 22 0 8 25 -15 28 -12 2 -24 9 -26 16 -4 9 8 13 41 13 40 0
53 -5 86 -36 37 -34 41 -27 7 12 -20 24 -21 39 -5 55 12 11 16 8 24 -13 6 -15
15 -23 21 -19 6 3 7 9 3 13 -9 6 -16 71 -7 71 2 0 9 -14 15 -32 11 -32 11 -32
20 -8 5 14 6 35 3 48 -5 22 -4 23 10 9 8 -9 15 -25 15 -36 0 -12 6 -21 15 -21
18 0 18 5 4 31 -6 11 -8 25 -6 32 3 7 14 -9 25 -34 21 -48 41 -70 43 -47 1 7
5 2 9 -12 8 -24 8 -23 9 8 1 17 -3 32 -9 32 -5 0 -10 8 -10 18 0 14 2 15 10 2
9 -13 11 -13 20 0 8 13 10 12 11 -5 1 -11 1 -26 0 -34 -2 -7 1 -20 5 -30 6
-12 9 -7 14 19 l7 35 11 -25 c12 -24 12 -24 9 9 l-4 33 18 -23 c16 -21 19 -21
19 -6 0 15 4 13 25 -10 22 -25 24 -26 25 -8 1 20 1 20 15 1 8 -11 15 -14 15
-8 0 7 4 12 9 12 4 0 6 -12 3 -27 l-5 -28 21 25 22 25 6 -23 c6 -21 7 -21 19
-5 11 14 15 15 28 4 9 -7 21 -10 27 -6 5 3 10 -1 10 -10 0 -12 6 -15 20 -10
12 4 20 2 20 -5 0 -8 10 -11 24 -8 15 3 27 -2 35 -14 6 -10 15 -16 20 -14 18
12 135 -93 158 -141 8 -18 19 -33 24 -33 5 0 9 -8 9 -19 0 -10 9 -21 19 -24
10 -2 24 -15 31 -28 10 -21 10 -22 -3 -6 -8 9 -21 17 -30 17 -13 0 -14 -5 -8
-22 5 -13 15 -23 22 -23 8 0 18 -6 23 -14 5 -8 11 -10 15 -3 3 5 19 -4 36 -21
23 -23 25 -29 10 -23 -45 18 -49 17 -21 -5 48 -38 80 -69 70 -70 -5 0 2 -5 16
-11 21 -9 22 -12 8 -15 -19 -5 -25 -23 -7 -23 5 0 8 -4 4 -9 -3 -5 0 -13 6
-17 6 -3 15 -1 19 5 5 9 11 7 21 -5 12 -16 12 -17 -5 -11 -15 6 -17 4 -11 -10
4 -10 8 -28 10 -40 1 -13 8 -30 16 -40 12 -15 12 -16 -3 -10 -20 7 -22 3 -9
-21 15 -30 24 -95 11 -87 -8 5 -10 -6 -4 -41 4 -27 8 -55 9 -64 1 -8 4 -22 8
-30 4 -8 5 -24 3 -35 -2 -11 1 -28 6 -37 5 -10 5 -18 0 -18 -11 0 -7 -133 6
-187 8 -36 7 -43 -5 -43 -12 0 -13 -8 -8 -42 4 -24 14 -53 22 -65 10 -15 11
-23 4 -23 -6 0 -14 7 -17 15 -10 25 -22 7 -19 -27 1 -20 8 -34 18 -36 13 -3
14 -6 1 -30 -16 -31 -18 -52 -5 -52 4 0 8 -22 8 -48 0 -26 4 -58 8 -71 4 -14
3 -21 -2 -18 -8 5 -24 -106 -33 -228 -6 -73 -4 -161 3 -176 5 -10 2 -22 -7
-32 -19 -19 -20 -59 -1 -110 13 -38 13 -38 -7 -20 -21 18 -21 18 -14 -10 5
-19 3 -27 -4 -22 -7 4 -9 -4 -5 -25 4 -20 0 -36 -10 -46 -13 -13 -13 -19 0
-50 14 -33 14 -34 -6 -23 -19 10 -20 8 -15 -13 3 -12 3 -17 0 -10 -9 19 -24 4
-24 -26 0 -38 -13 -54 -41 -50 -21 3 -24 -1 -24 -29 0 -17 -3 -35 -7 -38 -13
-13 -38 4 -38 25 0 11 -5 20 -11 20 -5 0 -8 -4 -4 -9 3 -5 1 -12 -5 -16 -5 -3
-10 -19 -10 -36 0 -16 -4 -29 -9 -29 -5 0 -8 6 -7 13 0 6 -3 12 -9 12 -5 0 -9
-3 -7 -7 1 -5 -2 -8 -8 -8 -5 0 -10 -10 -10 -23 0 -13 -5 -28 -11 -34 -8 -8
-8 -17 0 -31 6 -11 11 -33 10 -49 -1 -30 -3 -26 -14 21 -5 23 -8 27 -16 15 -7
-11 -9 -11 -9 4 0 10 -4 16 -9 13 -12 -8 -5 -58 11 -67 8 -5 9 -9 2 -9 -6 0
-17 7 -24 15 -18 21 -39 -4 -33 -38 3 -16 1 -27 -6 -27 -6 0 -11 8 -11 17 0
15 -14 10 -16 -5 0 -4 -6 -26 -14 -49 -10 -34 -11 -45 0 -58 8 -10 9 -15 1
-15 -6 0 -11 5 -11 10 0 6 -4 10 -10 10 -5 0 -10 -7 -10 -15 0 -20 -10 -19
-26 2 -7 10 -16 15 -19 11 -4 -4 6 -18 21 -32 16 -14 25 -26 19 -26 -5 0 -11
-11 -11 -25 -1 -14 -5 -33 -8 -42 -6 -15 -8 -15 -16 -3 -8 13 -10 12 -10 -2 0
-21 -11 -23 -29 -5 -11 10 -12 8 -7 -10 5 -15 1 -25 -14 -36 -13 -9 -18 -20
-14 -31 4 -9 1 -16 -6 -16 -7 0 -10 -8 -7 -20 5 -21 -58 -100 -81 -100 -17 0
-15 -20 5 -42 15 -17 15 -18 -3 -19 -10 -1 -22 -1 -26 0 -5 0 -8 -7 -9 -17 0
-10 -3 -12 -6 -4 -2 6 -9 12 -14 12 -6 0 -8 -4 -5 -8 3 -5 8 -24 11 -43 4 -25
3 -30 -5 -19 -5 8 -10 11 -11 5 0 -5 -4 -1 -8 9 -4 11 -15 20 -24 22 -19 2
-23 -11 -7 -21 6 -3 10 -13 10 -21 0 -9 -5 -12 -12 -8 -8 5 -9 2 -5 -9 9 -24
-11 -32 -32 -13 -17 16 -31 13 -31 -7 0 -5 7 -6 16 -3 12 5 14 1 9 -15 -4 -11
-1 -27 7 -36 11 -15 11 -16 -5 -10 -10 4 -21 7 -23 7 -2 0 -4 9 -4 21 0 24
-17 59 -29 59 -8 0 -5 -64 3 -87 3 -7 1 -15 -4 -18 -6 -4 -10 -2 -10 3 0 6 -6
9 -14 8 -8 0 -14 4 -13 9 1 6 5 9 9 8 4 -2 5 4 2 11 -4 12 -10 10 -25 -5 -17
-17 -18 -23 -8 -36 11 -13 10 -14 -11 -11 -17 2 -24 8 -22 21 3 20 -16 23 -24
3 -3 -8 -7 -38 -9 -68 -4 -78 -4 -78 -16 -78 -6 0 -8 9 -4 21 8 23 -15 139
-26 139 -4 0 -5 -18 -2 -40 4 -26 2 -40 -6 -40 -6 0 -11 -7 -11 -15 0 -8 -4
-15 -10 -15 -5 0 -10 -13 -10 -29 0 -17 -4 -33 -10 -36 -13 -8 -13 31 0 56 8
13 7 19 0 19 -6 0 -6 7 2 20 10 15 10 22 1 31 -15 15 -45 -5 -37 -25 2 -6 -2
-20 -11 -31 -14 -19 -14 -19 -13 8 2 16 8 33 15 39 17 13 16 38 -1 61 -11 15
-15 15 -19 3 -3 -8 -1 -16 6 -19 8 -2 8 -5 0 -10 -6 -4 -19 1 -29 10 -16 16
-17 15 -10 -30 5 -29 3 -47 -3 -47 -5 0 -12 -15 -14 -32 -2 -20 -5 -8 -6 27
-1 64 -9 105 -20 105 -3 0 -5 -20 -4 -45 1 -28 -2 -43 -8 -39 -7 4 -8 -8 -5
-33 6 -36 5 -36 -4 -8 -6 17 -8 46 -5 65 4 28 3 31 -5 18 -6 -10 -16 -18 -22
-18 -9 0 -9 3 0 12 15 15 16 32 2 23 -5 -3 -10 0 -10 7 -1 7 -12 0 -25 -17
-28 -34 -33 -27 -9 10 9 14 12 25 6 25 -5 0 -12 -7 -16 -15 -8 -22 -29 -18
-23 4 3 12 -1 22 -10 25 -8 3 -11 11 -7 17 4 8 3 9 -4 5 -9 -5 -9 -13 -1 -27
6 -11 7 -28 3 -37 -6 -14 -8 -13 -14 8 -4 14 -6 42 -6 63 1 40 -9 47 -30 20
-7 -10 -16 -15 -20 -11 -4 4 -1 15 6 24 23 27 19 70 -4 47 -11 -12 -36 -12
-36 0 0 6 -10 1 -23 -11 -13 -12 -27 -22 -33 -22 -5 0 6 12 24 26 17 14 32 32
32 40 0 11 6 13 20 9 15 -5 18 -3 14 9 -4 11 0 13 15 9 12 -3 21 -10 21 -15 0
-5 17 4 37 19 25 19 38 24 41 15 6 -18 23 -15 20 4 -2 12 6 17 31 20 19 2 40
9 47 15 16 13 30 -12 18 -33 -4 -7 0 -6 10 2 13 13 15 24 8 61 -5 25 -5 54 -1
64 5 14 8 5 8 -28 1 -30 5 -46 11 -42 6 3 14 -5 19 -18 7 -17 19 -26 40 -29
33 -5 47 5 52 36 2 11 10 21 18 24 10 3 13 -3 9 -26 -4 -27 -2 -30 13 -21 11
5 16 16 12 25 -3 8 -2 14 3 13 27 -5 34 1 23 20 -16 25 -5 53 17 44 12 -4 15
-3 10 5 -4 7 -12 12 -18 12 -5 0 -21 9 -35 20 -34 27 -41 25 -35 -6 3 -19 1
-25 -7 -20 -6 4 -11 16 -11 27 0 11 -4 18 -9 15 -14 -9 -1 -43 26 -71 21 -20
22 -25 9 -25 -9 0 -21 10 -26 23 -5 12 -9 18 -10 12 0 -5 -9 8 -19 30 -11 22
-20 34 -20 27 -1 -7 4 -23 10 -34 9 -16 8 -19 -3 -16 -7 3 -14 19 -16 36 -2
18 -9 32 -15 32 -8 0 -11 -19 -9 -62 2 -35 0 -60 -4 -56 -4 5 -7 28 -6 52 1
25 -3 48 -10 53 -21 16 -61 13 -74 -5 -11 -16 -12 -15 -11 3 2 16 -5 21 -30
23 -56 5 -36 18 22 14 62 -4 70 6 23 30 -48 23 -68 29 -68 17 0 -5 -19 1 -42
13 -24 12 -46 22 -50 23 -4 0 -14 10 -23 22 -14 20 -14 22 3 27 73 23 145 37
187 35 67 -2 116 8 205 43 118 47 128 55 88 73 -18 8 -26 6 -39 -9 -11 -13
-30 -20 -55 -21 -22 -1 -51 -8 -67 -15 -20 -10 -40 -11 -80 -4 -29 5 -68 7
-87 3 -19 -4 -51 -4 -70 0 -33 6 -35 9 -38 53 -3 43 -1 48 27 62 60 32 105 12
114 -49 4 -28 4 -28 6 6 0 20 11 49 23 64 20 26 25 27 78 22 45 -5 61 -3 85
13 21 14 39 18 62 14 21 -4 39 -1 55 10 30 21 45 20 53 -4 6 -18 8 -19 30 -4
22 14 24 14 34 -5 24 -44 -3 -107 -41 -95 -13 4 -24 1 -29 -7 -13 -21 -11 -39
6 -39 8 0 15 5 15 10 0 6 7 10 16 10 25 0 78 41 64 50 -9 6 -9 12 1 29 18 27
32 27 24 -1 -6 -18 -4 -20 11 -13 11 4 28 10 39 13 11 3 29 11 40 19 27 18 80
16 96 -3 14 -17 15 -20 17 -68 l2 -28 23 20 c12 11 39 35 60 53 33 27 38 37
33 61 -3 15 -1 28 4 28 6 0 10 9 10 20 0 10 7 23 16 28 11 6 13 11 5 16 -18
12 -12 25 9 19 12 -3 24 -20 32 -44 12 -41 24 -51 26 -21 5 56 1 107 -8 116
-14 14 -13 29 2 20 7 -4 8 -3 4 5 -4 6 -12 9 -17 5 -6 -3 -13 3 -16 15 -3 12
-9 21 -15 21 -10 0 -69 40 -79 53 -3 5 -10 9 -15 9 -23 1 -52 19 -92 57 -24
23 -50 41 -58 41 -9 0 -12 5 -9 10 3 6 0 10 -8 10 -8 0 -20 7 -27 15 -7 8 -21
15 -31 15 -10 0 -20 8 -23 18 -7 21 -131 82 -169 82 -25 0 -27 -3 -27 -40 0
-22 5 -40 10 -40 12 0 140 -170 140 -186 0 -7 7 -14 15 -18 8 -3 15 -17 15
-32 0 -22 -2 -25 -15 -14 -10 8 -15 9 -15 1 0 -6 11 -18 25 -27 18 -12 22 -20
16 -33 -4 -9 -6 -22 -4 -28 7 -19 -18 -16 -33 4 -18 24 -17 36 1 29 21 -8 19
-1 -9 28 l-23 26 0 -39 c0 -26 5 -42 14 -46 12 -4 13 -8 3 -20 -9 -10 -17 -12
-30 -5 -13 7 -21 5 -31 -6 -11 -14 -13 -14 -21 0 -8 14 -11 14 -33 0 -14 -9
-25 -12 -25 -6 0 13 -59 22 -66 10 -3 -5 -11 -7 -17 -5 -7 2 -22 1 -33 -4 -29
-10 -37 0 -20 25 7 12 11 31 10 44 -3 19 -1 21 14 13 16 -9 24 -11 38 -11 3 0
-2 -7 -10 -16 -20 -19 -20 -34 -1 -34 10 0 12 6 8 18 -6 14 -4 15 9 4 13 -10
17 -10 22 3 3 9 11 13 17 9 9 -5 10 1 5 20 -4 18 -3 25 4 21 5 -3 10 -14 11
-23 0 -10 3 -12 6 -5 5 14 -27 93 -37 93 -4 0 -4 -14 -2 -31 3 -22 1 -30 -7
-25 -6 4 -9 11 -7 15 8 13 -8 29 -36 36 -26 7 -27 6 -16 -23 8 -20 16 -28 26
-24 10 3 13 1 8 -6 -4 -7 -11 -12 -16 -12 -14 0 -41 31 -35 41 3 4 -2 23 -12
41 -16 30 -18 31 -21 10 -4 -26 -8 -27 -29 -6 -12 11 -18 12 -23 4 -4 -7 -14
-10 -21 -7 -9 3 -2 10 19 18 17 8 32 17 32 21 0 4 6 5 14 2 8 -3 25 2 38 10
22 14 26 14 49 -1 23 -15 23 -15 7 2 -16 17 -16 20 7 47 14 16 25 33 25 37 0
16 -109 -8 -154 -33 -26 -14 -53 -26 -61 -26 -8 0 -20 -12 -27 -27 -14 -28
-46 -47 -36 -21 5 12 -5 13 -53 10 -83 -6 -105 2 -136 51 -21 31 -29 57 -30
97 -2 30 -5 81 -7 112 -3 39 0 61 9 68 9 8 12 45 9 148 -3 127 7 202 27 202 5
0 13 123 11 183 -1 9 3 15 8 12 4 -3 6 4 3 15 -3 11 0 20 6 20 6 0 11 5 11 10
0 6 -9 10 -19 10 -10 0 -21 7 -25 15 -3 9 -19 15 -41 15 -19 0 -35 5 -35 10 0
6 -11 10 -25 10 -14 0 -25 4 -25 9 0 16 -98 41 -162 41 -35 1 -83 5 -107 9
-25 5 -54 6 -65 1 -20 -7 -20 -7 1 -20 11 -8 19 -20 16 -27 -4 -11 -8 -10 -17
2 -6 9 -28 17 -48 18 -21 2 -43 8 -50 15 -14 14 -38 16 -38 4 0 -5 10 -14 23
-20 21 -11 21 -12 -8 -11 -67 2 -85 -1 -85 -16 0 -17 -18 -19 -39 -6 -7 5 -27
5 -43 1 -16 -5 -26 -5 -23 0 10 16 -12 19 -39 4 -33 -17 -46 -18 -46 -4 0 6
12 15 26 20 14 6 22 15 19 20 -5 8 -11 8 -20 0 -10 -8 -13 -5 -11 15 0 13 6
27 12 29 17 6 44 65 38 80 -3 7 1 20 8 27 8 8 15 23 16 34 1 11 4 29 6 40 2
11 5 26 5 33 1 6 10 12 20 12 21 0 22 19 2 44 -10 11 -10 16 -2 16 7 0 9 5 6
10 -4 6 -11 8 -16 5 -5 -4 -9 1 -9 9 0 12 -8 36 -26 76 -1 3 -5 15 -9 28 -4
12 -13 22 -20 22 -18 0 -18 109 1 138 8 12 21 22 28 22 8 0 16 7 19 15 4 8 24
28 47 44 22 16 37 32 31 35 -5 3 -11 -1 -15 -9 -3 -8 -15 -15 -27 -15 -15 0
-19 4 -15 16 3 9 6 22 6 30 0 8 4 14 9 14 4 0 47 38 95 85 47 47 90 85 96 85
5 0 25 11 44 24 27 18 32 26 23 36 -10 10 -7 11 11 5 23 -7 28 1 14 23 -9 14
-52 3 -109 -29 -19 -11 -35 -14 -38 -9 -4 6 1 10 9 10 8 0 20 9 26 20 6 11 20
20 30 20 11 0 20 4 20 9 0 5 10 11 23 15 17 5 19 8 8 15 -10 6 -3 9 22 8 41
-1 59 10 37 23 -23 14 -4 23 20 10 16 -9 29 -9 44 -2 27 13 85 25 69 15 -17
-12 11 -47 32 -40 8 4 15 2 15 -3 0 -6 7 -10 16 -10 8 0 13 4 10 8 -7 12 13
82 23 82 5 0 11 -7 15 -15 3 -8 1 -15 -5 -15 -6 0 -7 -5 -4 -10 4 -6 2 -17 -5
-25 -9 -11 -7 -12 9 -8 12 3 17 11 14 19 -4 12 0 14 23 8 l29 -7 -22 25 c-27
28 -30 58 -7 58 9 0 12 5 8 11 -4 7 -1 10 7 7 8 -3 28 3 46 14 20 12 34 15 38
8 3 -5 23 -10 43 -10 28 0 33 3 22 10 -12 8 -11 10 7 10 15 0 31 -13 49 -40
31 -47 41 -52 19 -10 -8 16 -15 35 -15 43 0 18 -21 27 -60 27 -37 0 -61 10
-54 21 3 5 2 9 -3 7 -17 -4 -73 14 -73 24 0 6 -10 8 -23 4 -16 -4 -26 0 -34
13 -6 10 -27 21 -46 25 -19 4 -38 13 -41 21 -3 9 -18 15 -36 15 -18 0 -29 -4
-25 -10 9 -14 -1 -12 -36 6 -16 8 -38 12 -49 9 -24 -8 -71 5 -64 17 6 9 43 7
146 -8 32 -5 36 -3 32 13 -3 11 -20 25 -38 31 -48 18 -56 14 -16 -8 19 -11 28
-19 20 -20 -9 0 -20 4 -25 9 -6 5 -27 14 -47 21 -48 15 -49 28 -2 26 21 0 39
4 41 11 5 14 -57 32 -147 42 -56 6 -61 9 -37 16 16 4 60 3 100 -4 40 -6 114
-13 166 -16 61 -4 98 -10 105 -19 12 -15 70 -36 95 -35 9 0 -13 14 -49 30 -62
29 -193 54 -214 42 -5 -3 -6 -1 -2 5 7 12 -10 16 -46 13 -10 -1 -18 3 -18 8 0
7 26 11 64 11 37 0 66 5 68 11 2 6 25 11 51 11 26 1 47 5 47 10 0 5 -4 7 -9 3
-5 -3 -13 -1 -16 5 -4 7 -27 9 -61 5 -30 -3 -54 -2 -54 3 0 14 81 31 114 25
18 -4 31 -1 36 7 9 15 61 18 103 6 25 -7 27 -6 25 15 -3 21 2 24 37 27 30 2
36 0 25 -8 -10 -6 -11 -10 -2 -10 6 0 35 -11 63 -25 29 -13 56 -22 61 -19 13
8 -21 30 -59 38 -38 9 -52 25 -32 37 14 8 30 7 59 -4 8 -3 34 -8 58 -10 l43
-5 -28 28 c-30 30 -60 40 -80 27 -9 -6 -13 -1 -13 13 0 12 -5 18 -10 15 -6 -4
-7 -11 -4 -17 5 -8 -4 -9 -30 -5 -20 3 -62 1 -94 -4 -82 -15 -170 -21 -153
-10 11 7 9 10 -8 16 -35 11 -21 13 37 6 28 -4 52 -4 52 1 0 4 9 8 20 8 11 0
20 5 20 11 0 5 3 8 8 6 4 -3 32 -1 63 3 31 4 75 4 97 0 23 -4 42 -4 42 0 0 15
-33 20 -138 20 -79 0 -103 -3 -92 -11z m50 -95 c0 -2 -7 -4 -15 -4 -8 0 -15 4
-15 10 0 5 7 7 15 4 8 -4 15 -8 15 -10z m-103 -20 c-3 -3 -12 -4 -19 -1 -8 3
-5 6 6 6 11 1 17 -2 13 -5z m-162 -14 c-3 -5 -17 -10 -31 -10 -13 0 -24 5 -24
10 0 6 14 10 31 10 17 0 28 -4 24 -10z m-149 -35 c-27 -13 -52 -29 -56 -35 -4
-7 -12 -4 -24 8 -16 19 -16 20 4 25 11 3 18 1 14 -4 -3 -5 -1 -9 5 -9 5 0 14
6 18 14 10 16 30 24 63 25 20 0 14 -5 -24 -24z m1445 -17 c41 -46 36 -59 -6
-15 -19 20 -35 38 -35 42 0 12 13 3 41 -27z m-46 2 c3 -5 2 -10 -4 -10 -5 0
-13 5 -16 10 -3 6 -2 10 4 10 5 0 13 -4 16 -10z m-154 -61 c26 -16 52 -36 58
-43 18 -21 -22 -13 -45 9 -10 11 -33 30 -49 42 -45 33 -19 28 36 -8z m264 0
c11 -17 -1 -21 -15 -4 -8 9 -8 15 -2 15 6 0 14 -5 17 -11z m-1645 -9 c0 -12
-39 -12 -95 -1 -37 8 -35 9 28 10 39 1 67 -3 67 -9z m1480 0 c0 -5 -2 -10 -4
-10 -3 0 -8 5 -11 10 -3 6 -1 10 4 10 6 0 11 -4 11 -10z m-216 -49 c-7 -9 -34
10 -34 24 0 13 3 12 18 -2 10 -10 17 -20 16 -22z m247 22 c13 -16 12 -17 -3
-4 -17 13 -22 21 -14 21 2 0 10 -8 17 -17z m-557 -28 c3 -8 1 -15 -4 -15 -6 0
-10 7 -10 15 0 8 2 15 4 15 2 0 6 -7 10 -15z m536 -6 c0 -14 -17 -10 -23 5 -4
10 -1 13 9 9 7 -3 14 -9 14 -14z m-100 -40 c0 -5 -5 -9 -12 -9 -6 0 -8 3 -5 7
4 3 1 13 -6 22 -11 14 -10 14 6 2 9 -7 17 -17 17 -22z m-2962 -9 c-10 -15 -9
-23 6 -38 15 -17 15 -23 5 -41 -10 -15 -16 -17 -26 -9 -9 7 -19 6 -35 -4 -46
-29 -53 -28 -53 8 0 24 9 43 29 65 45 47 100 62 74 19z m1716 -12 c-3 -4 -9
-8 -15 -8 -5 0 -9 4 -9 8 0 5 7 9 15 9 8 0 12 -4 9 -9z m86 -68 c0 -5 15 -10
33 -10 18 0 37 -4 43 -9 5 -5 25 -14 44 -19 30 -8 32 -11 16 -17 -11 -5 -32
-3 -50 4 -17 7 -47 14 -66 17 -19 3 -60 9 -90 13 l-55 9 55 1 c40 1 51 4 40
11 -12 8 -11 10 8 10 12 0 22 -4 22 -10z m376 -5 c10 -8 15 -14 9 -14 -5 0
-19 6 -29 14 -11 8 -15 15 -10 15 6 0 19 -7 30 -15z m300 -82 c1 -16 -6 -16
-27 0 -18 14 -39 50 -39 68 0 16 65 -52 66 -68z m-111 47 c3 -6 -1 -7 -9 -4
-18 7 -21 14 -7 14 6 0 13 -4 16 -10z m35 0 c0 -5 -2 -10 -4 -10 -3 0 -8 5
-11 10 -3 6 -1 10 4 10 6 0 11 -4 11 -10z m-632 -26 c32 -9 28 -28 -5 -19 -45
10 -13 -10 37 -25 27 -8 38 -15 28 -17 -10 -3 -47 7 -82 21 -35 14 -70 26 -78
26 -10 0 -9 3 2 10 17 11 64 13 98 4z m81 -30 c2 -2 2 -6 0 -9 -8 -7 -49 7
-49 17 0 8 38 2 49 -8z m36 6 c3 -5 1 -10 -4 -10 -6 0 -11 5 -11 10 0 6 2 10
4 10 3 0 8 -4 11 -10z m198 -7 c-7 -2 -19 -2 -25 0 -7 3 -2 5 12 5 14 0 19 -2
13 -5z m-397 -44 c24 -11 44 -23 44 -26 0 -7 -24 0 -95 32 -42 18 -50 24 -26
19 18 -3 53 -15 77 -25z m431 25 c-3 -3 -12 -4 -19 -1 -8 3 -5 6 6 6 11 1 17
-2 13 -5z m-37 -13 c0 -6 -4 -13 -10 -16 -5 -3 -10 1 -10 9 0 9 5 16 10 16 6
0 10 -4 10 -9z m-180 -21 c0 -5 -2 -10 -4 -10 -3 0 -8 5 -11 10 -3 6 -1 10 4
10 6 0 11 -4 11 -10z m-313 -6 c-3 -3 -12 -4 -19 -1 -8 3 -5 6 6 6 11 1 17 -2
13 -5z m364 -11 c13 -17 13 -17 -6 -3 -11 8 -22 16 -24 17 -2 2 0 3 6 3 6 0
17 -8 24 -17z m-106 -3 c3 -5 2 -10 -4 -10 -5 0 -13 5 -16 10 -3 6 -2 10 4 10
5 0 13 -4 16 -10z m145 -10 c0 -11 -4 -20 -9 -20 -5 0 -7 9 -4 20 3 11 7 20 9
20 2 0 4 -9 4 -20z m-53 -38 c1 -31 -3 -39 -24 -49 -23 -11 -25 -10 -20 7 4
14 -3 23 -24 32 -30 13 -42 35 -13 24 9 -4 23 -1 30 5 7 6 18 8 24 4 5 -3 10
-1 10 4 0 6 4 11 8 11 4 0 8 -17 9 -38z m-297 6 c0 -4 -11 -8 -24 -8 -14 0
-27 4 -30 8 -3 5 8 9 24 9 17 0 30 -4 30 -9z m1925 -348 c3 -5 1 -10 -4 -10
-6 0 -11 5 -11 10 0 6 2 10 4 10 3 0 8 -4 11 -10z m15 -42 c0 -13 -23 -5 -28
10 -2 7 2 10 12 6 9 -3 16 -11 16 -16z m-2187 -49 c-6 -6 -9 -18 -6 -25 5 -15
-18 -29 -38 -22 -10 3 36 58 49 58 3 0 1 -5 -5 -11z m2207 -84 c10 -12 10 -15
-4 -15 -9 0 -16 7 -16 15 0 8 2 15 4 15 2 0 9 -7 16 -15z m-1649 -672 c13 -16
12 -17 -3 -4 -10 7 -18 15 -18 17 0 8 8 3 21 -13z m-286 -3 c8 -13 -15 -13
-35 0 -12 8 -11 10 7 10 12 0 25 -4 28 -10z m98 3 c-7 -2 -19 -2 -25 0 -7 3
-2 5 12 5 14 0 19 -2 13 -5z m97 -13 c0 -5 -7 -7 -15 -4 -8 4 -15 8 -15 10 0
2 7 4 15 4 8 0 15 -4 15 -10z m-520 -30 c0 -5 -5 -10 -11 -10 -5 0 -7 5 -4 10
3 6 8 10 11 10 2 0 4 -4 4 -10z m-70 -225 c0 -22 -24 -13 -29 11 -2 10 -9 23
-17 27 -8 4 -14 15 -14 23 0 11 10 6 30 -14 17 -17 30 -38 30 -47z m-51 13
c-4 -33 2 -48 20 -48 11 0 22 -4 25 -8 9 -15 -12 -34 -35 -30 -20 2 -24 9 -25
38 -1 35 4 60 13 60 2 0 3 -6 2 -12z m621 -60 c0 -5 4 -7 8 -4 5 3 21 -4 38
-15 l29 -21 -27 6 c-17 4 -28 2 -28 -4 0 -5 -9 -10 -20 -10 -11 0 -20 5 -20
12 0 9 -3 9 -12 0 -7 -7 -33 -12 -60 -12 -38 0 -46 3 -42 15 5 12 0 14 -22 9
-30 -6 -89 17 -77 30 11 10 233 5 233 -6z m173 -87 c20 -8 27 -16 23 -29 -3
-9 -1 -23 3 -31 6 -10 3 -27 -8 -50 -32 -64 -34 -91 -10 -117 24 -25 19 -45
-11 -39 -11 2 -20 0 -20 -6 0 -5 -7 -9 -15 -9 -8 0 -15 -4 -15 -9 0 -5 -15
-26 -34 -46 -19 -20 -36 -42 -39 -49 -3 -7 -21 -21 -41 -30 -20 -9 -36 -21
-36 -25 0 -13 -37 -51 -43 -45 -3 3 -16 -3 -28 -15 -12 -11 -26 -18 -31 -15
-4 3 -8 0 -8 -5 0 -16 -16 -13 -34 5 -14 13 -16 13 -16 1 0 -9 6 -18 13 -20 7
-3 6 -6 -5 -6 -9 -1 -20 4 -23 9 -5 8 -11 7 -20 0 -11 -9 -18 -7 -32 9 -9 12
-21 21 -26 21 -13 0 -37 27 -37 41 0 9 -3 9 -14 0 -15 -13 -26 4 -26 40 0 11
-9 27 -20 36 -27 24 -26 46 1 38 l22 -7 -22 23 c-11 12 -21 35 -21 49 0 15 -3
30 -7 34 -4 4 -8 24 -9 44 -1 48 -14 92 -26 92 -19 0 6 23 46 42 33 15 35 18
14 15 -18 -3 -28 0 -28 8 0 16 33 25 85 24 l40 -1 -30 -14 c-28 -13 -23 -14
68 -12 53 1 97 5 97 9 0 4 8 8 18 8 29 1 192 38 200 46 4 4 -3 4 -15 1 -14 -5
-23 -3 -23 3 0 14 47 14 55 1 3 -5 11 -10 17 -10 6 0 6 6 -2 15 -12 14 -10 14
16 1 16 -8 42 -19 57 -25z m-186 13 c-3 -3 -12 -4 -19 -1 -8 3 -5 6 6 6 11 1
17 -2 13 -5z m-576 -57 c-8 -8 -11 -7 -11 4 0 20 13 34 18 19 3 -7 -1 -17 -7
-23z m-23 -62 c-1 -14 -6 -25 -11 -25 -5 0 -6 7 -3 16 3 9 6 20 6 25 0 5 2 9
5 9 3 0 4 -11 3 -25z m2356 -101 c3 -8 2 -12 -4 -9 -6 3 -10 10 -10 16 0 14 7
11 14 -7z m-1562 -191 c7 -16 23 -42 35 -59 40 -54 26 -73 -35 -49 -41 17 -82
56 -82 78 0 23 31 57 51 57 12 0 24 -11 31 -27z m1578 -18 c0 -8 -2 -15 -4
-15 -2 0 -6 7 -10 15 -3 8 -1 15 4 15 6 0 10 -7 10 -15z m583 -82 c18 -2 39
-6 47 -7 8 -1 49 -12 90 -25 41 -12 100 -29 130 -37 106 -28 160 -48 171 -61
6 -7 16 -13 22 -13 6 0 21 -10 33 -21 22 -21 22 -23 8 -52 -16 -29 -17 -29
-77 -23 -58 6 -129 27 -204 61 -17 8 -38 15 -48 15 -29 0 -218 79 -237 99 -10
11 -18 28 -18 37 0 19 30 45 43 37 4 -2 22 -7 40 -10z m-583 -63 c0 -5 -2 -10
-4 -10 -3 0 -8 5 -11 10 -3 6 -1 10 4 10 6 0 11 -4 11 -10z m-22 -56 c-4 -3
-12 5 -18 18 -12 22 -12 22 6 6 10 -10 15 -20 12 -24z m-38 6 c0 -5 -2 -10 -4
-10 -3 0 -8 5 -11 10 -3 6 -1 10 4 10 6 0 11 -4 11 -10z m-650 -85 c13 -16 3
-20 -24 -9 -9 3 -13 10 -10 15 8 13 20 11 34 -6z m-475 -5 c3 -5 2 -10 -4 -10
-5 0 -13 5 -16 10 -3 6 -2 10 4 10 5 0 13 -4 16 -10z m1125 0 c0 -5 -5 -10
-11 -10 -7 0 -9 -18 -5 -52 4 -36 3 -47 -3 -33 -18 37 -11 105 10 105 5 0 9
-4 9 -10z m-620 -56 c0 -2 -7 -4 -15 -4 -8 0 -15 4 -15 10 0 5 7 7 15 4 8 -4
15 -8 15 -10z m70 6 c0 -5 -2 -10 -4 -10 -3 0 -8 5 -11 10 -3 6 -1 10 4 10 6
0 11 -4 11 -10z m-502 -48 c-12 -10 -27 -17 -33 -17 -5 0 -16 -4 -22 -8 -7 -5
-18 -5 -23 -2 -6 4 -19 1 -28 -7 -16 -12 -16 -11 -1 12 12 18 27 26 53 28 24
2 40 10 47 24 11 20 12 20 21 4 8 -14 5 -21 -14 -34z m1012 38 c0 -5 -2 -10
-4 -10 -3 0 -8 5 -11 10 -3 6 -1 10 4 10 6 0 11 -4 11 -10z m-57 -30 c3 -11 2
-22 -3 -25 -4 -3 -10 6 -12 20 -6 30 7 34 15 5z m-1813 -29 c0 -10 -7 -24 -15
-31 -13 -10 -15 -9 -15 12 0 14 3 28 7 31 12 13 23 7 23 -12z m726 -18 c-10
-10 -19 5 -10 18 6 11 8 11 12 0 2 -7 1 -15 -2 -18z m1022 -75 c5 -32 5 -55 0
-52 -4 3 -8 21 -8 40 0 25 -4 34 -16 34 -11 0 -15 -6 -11 -20 3 -11 2 -20 -3
-20 -4 0 -10 11 -12 25 -4 16 -1 25 8 25 7 0 16 10 20 23 8 26 11 21 22 -55z
m135 32 c-5 -29 -7 -31 -14 -15 -11 28 -11 37 1 30 6 -3 10 2 10 11 0 10 2 15
5 12 3 -3 2 -20 -2 -38z m-86 -12 c-3 -8 -6 -5 -6 6 -1 11 2 17 5 13 3 -3 4
-12 1 -19z m-87 -58 c0 -5 -4 -10 -10 -10 -5 0 -10 5 -10 10 0 6 5 10 10 10 6
0 10 -4 10 -10z m-1156 -82 c8 -13 7 -21 -2 -30 -11 -11 -16 -9 -28 6 -8 11
-14 26 -14 34 0 18 30 11 44 -10z m1043 -20 c-3 -8 -6 -5 -6 6 -1 11 2 17 5
13 3 -3 4 -12 1 -19z m118 2 c3 -5 1 -10 -4 -10 -6 0 -11 5 -11 10 0 6 2 10 4
10 3 0 8 -4 11 -10z m25 -210 c0 -5 -2 -10 -4 -10 -3 0 -8 5 -11 10 -3 6 -1
10 4 10 6 0 11 -4 11 -10z m-1255 -50 c3 -5 1 -10 -4 -10 -6 0 -11 5 -11 10 0
6 2 10 4 10 3 0 8 -4 11 -10z m68 -32 c-11 -13 -23 -30 -26 -38 -4 -12 -6 -12
-6 2 -1 9 -6 18 -13 20 -6 2 4 12 23 21 44 22 46 21 22 -5z m-1378 -4 c14 -9
23 -20 20 -24 -3 -5 -1 -20 5 -34 11 -31 3 -59 -16 -52 -23 9 -64 -12 -64 -31
0 -18 117 -146 157 -173 28 -18 13 -30 -39 -30 -20 0 -60 -5 -88 -11 -77 -16
-114 -6 -135 37 -14 29 -15 42 -6 61 13 28 6 62 -21 115 -11 21 -21 43 -22 50
-2 7 -6 21 -10 30 -17 39 -3 53 53 54 29 1 58 7 64 13 16 16 74 13 102 -5z
m1310 6 c-3 -5 -12 -10 -18 -10 -7 0 -6 4 3 10 19 12 23 12 15 0z m187 -32
c-8 -8 -9 -4 -5 13 4 13 8 18 11 10 2 -7 -1 -18 -6 -23z m-22 -17 c0 -4 -6
-15 -13 -25 -12 -16 -13 -15 -11 11 1 15 2 29 3 31 2 6 21 -9 21 -17z m1007
-71 c-5 -47 -8 -204 -7 -350 3 -484 8 -424 -47 -551 -30 -70 -57 -119 -73
-130 -75 -55 -346 -74 -570 -40 -130 19 -248 50 -280 71 -13 9 -13 12 3 21 9
5 17 15 17 22 0 12 44 37 65 37 6 0 26 -11 45 -25 19 -14 45 -25 58 -25 25 0
91 16 127 30 48 20 136 42 142 37 3 -4 12 -2 18 3 7 6 32 17 56 24 40 13 41
14 15 15 -23 1 -27 4 -18 13 21 21 13 27 -25 22 -26 -4 -34 -3 -25 4 10 7 4
11 -25 16 -21 4 -46 10 -57 13 -12 3 -16 1 -12 -6 5 -8 0 -8 -16 -2 -13 4 -29
6 -36 4 -8 -3 -10 1 -6 11 5 12 2 15 -10 10 -9 -3 -16 -1 -16 5 0 6 5 11 10
11 18 0 10 16 -12 26 -13 6 -18 9 -12 8 6 -1 9 8 6 22 -2 13 0 24 6 24 5 0 9
8 8 18 0 9 4 16 9 15 6 -1 30 22 55 51 25 29 62 65 83 80 20 15 35 31 32 35
-2 5 14 14 35 21 23 8 40 20 40 28 0 9 16 30 36 49 36 32 37 38 19 88 -6 17
-4 16 13 -4 l19 -24 11 32 c6 17 15 31 20 31 5 0 22 18 37 40 15 22 30 38 33
35 6 -5 52 42 52 54 0 4 17 25 38 47 21 22 44 49 50 59 11 20 11 20 12 0 1
-19 1 -19 11 -2 6 10 8 24 5 32 -2 7 1 19 9 25 10 8 14 8 18 -2 2 -7 8 1 12
17 7 25 25 50 31 42 1 -1 -3 -40 -9 -87z m-948 11 c15 -13 15 -13 -1 -8 -13 5
-18 1 -18 -13 0 -11 -6 -20 -14 -20 -8 0 -23 -3 -33 -6 -11 -4 -7 3 11 18 24
20 28 29 22 54 -5 25 -5 26 5 9 6 -11 19 -26 28 -34z m148 -7 c2 -11 0 -13 -3
-6 -3 6 -10 12 -15 12 -14 0 -11 -28 4 -33 9 -4 9 -6 -1 -6 -17 -1 -27 28 -14
41 8 8 7 15 -6 26 -14 12 -13 12 8 -1 14 -8 26 -23 27 -33z m-335 14 c-7 -7
-12 -8 -12 -2 0 14 12 26 19 19 2 -3 -1 -11 -7 -17z m418 2 c0 -11 -2 -20 -4
-20 -2 0 -6 9 -9 20 -3 11 -1 20 4 20 5 0 9 -9 9 -20z m-2417 -83 c57 -44 103
-54 171 -38 45 11 59 10 114 -8 91 -30 212 -111 212 -143 0 -33 -161 -73 -345
-84 -27 -2 -71 -6 -98 -10 -41 -6 -47 -5 -41 10 4 11 -10 34 -43 69 -47 52
-73 116 -75 184 0 27 34 74 47 63 6 -4 31 -23 58 -43z m2087 23 c0 -5 -5 -10
-11 -10 -5 0 -7 5 -4 10 3 6 8 10 11 10 2 0 4 -4 4 -10z m-325 -20 c-3 -5 -11
-10 -16 -10 -6 0 -7 5 -4 10 3 6 11 10 16 10 6 0 7 -4 4 -10z m-95 -15 c-19
-23 -70 -58 -76 -52 -4 4 74 67 84 67 3 0 -1 -7 -8 -15z m165 5 c3 -5 1 -10
-4 -10 -6 0 -11 5 -11 10 0 6 2 10 4 10 3 0 8 -4 11 -10z m95 -29 c0 -6 -4
-13 -10 -16 -5 -3 -10 1 -10 9 0 9 5 16 10 16 6 0 10 -4 10 -9z m-34 -10 c-3
-4 -19 -14 -36 -21 -20 -8 -27 -16 -20 -20 8 -5 9 -10 2 -14 -5 -3 -12 1 -15
8 -4 9 6 22 26 35 35 21 51 26 43 12z m-379 -48 c-3 -10 -5 -2 -5 17 0 19 2
27 5 18 2 -10 2 -26 0 -35z m1293 21 c0 -2 -7 -4 -15 -4 -8 0 -15 4 -15 10 0
5 7 7 15 4 8 -4 15 -8 15 -10z m-891 3 c-2 -2 -17 -11 -34 -22 l-30 -18 19 21
c11 12 26 22 34 22 9 0 13 -1 11 -3z m-3 -93 c-30 -21 -42 -17 -15 5 13 11 26
17 29 14 3 -2 -4 -11 -14 -19z m-106 12 c0 -3 -4 -8 -10 -11 -5 -3 -10 -1 -10
4 0 6 5 11 10 11 6 0 10 -2 10 -4z m174 -70 c-5 -14 -3 -16 7 -10 11 6 10 3
-1 -12 -8 -10 -16 -21 -17 -23 -2 -2 -3 18 -3 45 0 35 3 45 10 34 5 -8 7 -23
4 -34z m-33 0 c-14 -36 -22 -33 -9 5 6 16 12 28 14 26 3 -2 0 -16 -5 -31z
m627 9 c-3 -3 -9 2 -12 12 -6 14 -5 15 5 6 7 -7 10 -15 7 -18z m-672 -83 c-11
-10 -14 3 -8 33 l7 30 3 -28 c2 -16 1 -31 -2 -35z m691 36 c-3 -8 -6 -5 -6 6
-1 11 2 17 5 13 3 -3 4 -12 1 -19z m-580 -22 c-1 -20 -6 -31 -11 -26 -8 8 -1
60 9 60 3 0 4 -16 2 -34z m39 -1 c-11 -8 -22 -12 -25 -9 -6 6 19 24 34 24 6
-1 1 -7 -9 -15z m417 -67 c-10 -31 -10 -30 -10 21 0 44 2 51 10 33 7 -14 6
-33 0 -54z m-376 -10 c-3 -7 -5 -2 -5 12 0 14 2 19 5 13 2 -7 2 -19 0 -25z
m-80 0 c-3 -8 -6 -5 -6 6 -1 11 2 17 5 13 3 -3 4 -12 1 -19z m152 -33 c0 -5
-4 -3 -9 5 -5 8 -9 22 -9 30 0 16 17 -16 18 -35z m396 35 c3 -5 1 -10 -4 -10
-6 0 -11 5 -11 10 0 6 2 10 4 10 3 0 8 -4 11 -10z m-276 -30 c11 -24 11 -24
-3 -6 -9 11 -16 24 -16 30 0 12 5 7 19 -24z"/>
<path d="M2220 4216 c0 -2 7 -7 16 -10 8 -3 12 -2 9 4 -6 10 -25 14 -25 6z"/>
<path d="M2815 4850 c28 -12 47 -12 40 0 -3 6 -18 10 -33 9 -24 0 -25 -1 -7
-9z"/>
<path d="M3105 4820 c4 -6 11 -8 16 -5 14 9 11 15 -7 15 -8 0 -12 -5 -9 -10z"/>
<path d="M2985 4810 c-3 -5 -1 -10 4 -10 6 0 11 5 11 10 0 6 -2 10 -4 10 -3 0
-8 -4 -11 -10z"/>
<path d="M3158 4809 c13 -11 62 -20 62 -10 0 5 -16 11 -35 13 -19 2 -32 1 -27
-3z"/>
<path d="M3040 4800 c0 -5 5 -10 11 -10 5 0 7 5 4 10 -3 6 -8 10 -11 10 -2 0
-4 -4 -4 -10z"/>
<path d="M3073 4784 c8 -9 117 -53 117 -48 0 6 -99 54 -111 54 -7 0 -9 -3 -6
-6z"/>
<path d="M2732 4754 c10 -10 20 -16 22 -13 3 3 -5 11 -17 18 -21 13 -21 12 -5
-5z"/>
<path d="M2870 4712 c14 -9 46 -36 71 -59 25 -24 52 -43 60 -43 15 1 -57 69
-106 101 -37 23 -60 25 -25 1z"/>
<path d="M2365 4710 c3 -5 14 -10 23 -10 15 0 15 2 2 10 -20 13 -33 13 -25 0z"/>
<path d="M2505 4710 c27 -12 43 -12 25 0 -8 5 -22 9 -30 9 -10 0 -8 -3 5 -9z"/>
<path d="M148 4666 c-18 -14 -28 -33 -28 -50 0 -26 10 -33 24 -18 4 4 13 7 19
7 13 0 37 43 37 68 0 24 -20 21 -52 -7z"/>
<path d="M2355 4670 c3 -5 14 -10 23 -10 15 0 15 2 2 10 -20 13 -33 13 -25 0z"/>
<path d="M940 4598 c-44 -44 -85 -120 -94 -175 -5 -27 -3 -32 23 -41 55 -19
89 24 118 148 3 14 14 35 24 48 20 26 14 62 -11 62 -9 0 -36 -19 -60 -42z"/>
<path d="M4902 4507 c-40 -37 -105 -78 -172 -107 -8 -3 -25 -26 -37 -51 -19
-37 -22 -59 -21 -145 1 -55 -2 -105 -6 -112 -14 -23 82 -175 123 -196 17 -8
77 -13 179 -14 l152 -2 0 318 0 318 -23 2 c-13 1 -42 8 -66 17 -64 22 -77 19
-129 -28z"/>
<path d="M2190 4536 c0 -2 7 -9 15 -16 13 -11 14 -10 9 4 -5 14 -24 23 -24 12z"/>
<path d="M2475 4506 c11 -8 27 -16 35 -16 20 0 1 16 -30 25 -24 7 -24 7 -5 -9z"/>
<path d="M2210 4496 c0 -9 30 -14 35 -6 4 6 -3 10 -14 10 -12 0 -21 -2 -21 -4z"/>
<path d="M2540 4380 c-24 -8 -23 -8 8 -9 20 -1 31 3 27 9 -3 6 -7 10 -8 9 -1
-1 -13 -5 -27 -9z"/>
<path d="M2757 4307 c4 -7 8 -16 8 -22 0 -5 13 -11 29 -12 27 -2 27 -1 11 17
-19 21 -59 35 -48 17z"/>
<path d="M2580 4296 c0 -2 6 -16 14 -30 12 -23 15 -24 26 -11 7 9 11 16 9 18
-34 19 -49 26 -49 23z"/>
<path d="M2404 4241 c10 -11 15 -25 10 -32 -5 -8 -2 -11 8 -6 9 3 21 0 28 -6
10 -9 11 -9 5 3 -13 24 -48 60 -58 60 -6 0 -2 -9 7 -19z"/>
<path d="M2516 4245 c4 -8 8 -15 10 -15 2 0 4 7 4 15 0 8 -4 15 -10 15 -5 0
-7 -7 -4 -15z"/>
<path d="M2445 4230 c3 -5 10 -10 16 -10 5 0 9 5 9 10 0 6 -7 10 -16 10 -8 0
-12 -4 -9 -10z"/>
<path d="M2440 4170 c0 -5 5 -10 11 -10 5 0 7 5 4 10 -3 6 -8 10 -11 10 -2 0
-4 -4 -4 -10z"/>
<path d="M2122 4143 c-6 -2 -10 -9 -7 -14 4 -5 0 -7 -7 -4 -17 6 -54 -22 -43
-32 4 -5 10 -2 12 5 3 6 9 12 14 12 4 0 6 -7 3 -15 -8 -19 15 -19 40 0 11 8
30 15 43 15 13 0 23 6 23 14 0 22 -44 33 -78 19z"/>
<path d="M2060 4069 c0 -5 5 -7 10 -4 6 3 10 8 10 11 0 2 -4 4 -10 4 -5 0 -10
-5 -10 -11z"/>
<path d="M1825 3800 c-3 -6 1 -7 9 -4 18 7 21 14 7 14 -6 0 -13 -4 -16 -10z"/>
<path d="M3876 3587 c3 -10 9 -15 12 -12 3 3 0 11 -7 18 -10 9 -11 8 -5 -6z"/>
<path d="M3106 3108 c5 -8 -2 -9 -24 -5 -18 4 -56 2 -84 -4 -29 -6 -62 -12
-73 -13 -42 -4 -80 -20 -97 -40 -12 -14 -17 -17 -18 -7 0 11 -4 10 -20 -4 -10
-9 -26 -15 -35 -12 -8 4 -15 2 -15 -2 0 -10 -19 -9 -35 1 -12 7 -13 -88 -1
-117 20 -50 34 -71 71 -112 40 -43 40 -44 86 -35 54 10 106 -3 77 -19 -10 -6
-18 -15 -18 -20 0 -6 5 -7 10 -4 6 3 10 1 10 -4 0 -6 7 -11 16 -11 9 0 32 -9
50 -21 19 -11 34 -18 34 -15 0 3 19 -1 42 -10 57 -20 258 -31 258 -14 0 8 -8
10 -21 7 -24 -6 -56 17 -39 28 5 3 14 4 19 0 5 -3 12 -1 15 4 3 5 -6 12 -19
15 -14 4 -23 10 -20 15 2 5 -3 12 -12 15 -10 4 -20 1 -26 -9 -8 -15 -12 -14
-33 6 -20 19 -27 21 -34 10 -5 -8 -15 -11 -26 -7 -9 4 -21 2 -24 -4 -5 -8 -17
-3 -35 14 -23 22 -25 27 -11 32 9 3 23 4 31 1 22 -9 29 13 9 27 -15 12 -14 13
12 11 45 -3 47 -4 34 -20 -7 -9 -10 -18 -7 -21 9 -9 27 5 27 22 0 8 10 14 22
14 17 0 19 -3 10 -12 -17 -17 -15 -29 3 -22 8 4 15 11 15 18 0 6 12 16 26 23
25 11 26 11 21 -12 -2 -14 0 -25 4 -25 5 0 9 8 9 19 0 10 7 24 15 31 8 7 15 8
15 2 0 -5 9 -12 20 -15 11 -3 18 -1 14 4 -3 5 0 9 5 9 6 0 11 5 11 10 0 6 -11
10 -25 10 -24 0 -32 10 -18 23 3 4 16 1 27 -7 12 -7 47 -16 80 -19 l58 -5 -28
29 c-27 28 -89 54 -105 44 -4 -3 -9 -1 -11 5 -1 5 -18 11 -37 13 -49 4 -53 27
-4 27 63 0 113 -19 158 -61 57 -52 86 -53 49 -1 -15 21 -15 25 1 42 11 12 13
20 6 25 -6 3 -11 3 -11 -2 0 -4 -5 0 -11 10 -7 12 -17 15 -33 11 -26 -6 -44
12 -28 28 6 6 12 6 16 -1 12 -18 36 -13 29 6 -4 10 -2 14 4 10 6 -4 22 2 34
14 l24 20 -24 -7 c-14 -4 -26 -1 -31 6 -5 7 -28 14 -52 14 -23 1 -50 7 -58 15
-10 9 -15 10 -18 2 -2 -6 -11 -11 -21 -11 -21 0 -71 22 -71 32 0 3 -20 5 -45
4 -25 -1 -45 1 -45 6 0 4 -5 8 -10 8 -6 0 -10 -8 -8 -17 2 -13 -4 -19 -22 -21
-22 -2 -23 -1 -7 8 25 16 21 30 -9 30 -16 0 -23 -4 -18 -12z m164 -38 c-8 -5
-22 -10 -30 -10 -13 0 -13 1 0 10 8 5 22 10 30 10 13 0 13 -1 0 -10z m130 -40
c0 -5 -5 -10 -11 -10 -5 0 -7 5 -4 10 3 6 8 10 11 10 2 0 4 -4 4 -10z m26
-156 c18 -14 18 -14 -6 -3 -31 14 -36 19 -24 19 6 0 19 -7 30 -16z"/>
<path d="M3303 3103 c9 -2 15 -9 12 -14 -4 -5 1 -9 9 -9 9 0 16 4 16 9 0 10
-25 22 -43 20 -7 -1 -4 -3 6 -6z"/>
<path d="M1965 3070 c-3 -5 -1 -10 4 -10 6 0 11 5 11 10 0 6 -2 10 -4 10 -3 0
-8 -4 -11 -10z"/>
<path d="M1838 3053 c7 -3 16 -2 19 1 4 3 -2 6 -13 5 -11 0 -14 -3 -6 -6z"/>
<path d="M3530 3010 c0 -5 7 -10 15 -10 8 0 15 -7 15 -15 0 -8 4 -15 8 -15 12
0 32 22 32 35 0 5 -5 3 -10 -5 -9 -13 -12 -13 -21 3 -11 18 -39 24 -39 7z"/>
<path d="M4077 2934 c-12 -23 -10 -36 15 -115 30 -90 48 -113 48 -60 0 15 10
41 21 55 20 25 20 32 10 67 -13 44 -43 79 -66 79 -8 0 -20 -12 -28 -26z"/>
<path d="M3570 2930 c0 -5 4 -10 9 -10 6 0 13 5 16 10 3 6 -1 10 -9 10 -9 0
-16 -4 -16 -10z"/>
<path d="M1025 2889 c-9 -27 0 -35 20 -19 19 16 19 26 1 33 -9 4 -17 -2 -21
-14z"/>
<path d="M1350 2841 c-21 -40 -1 -121 30 -121 15 0 32 40 32 76 0 57 -40 86
-62 45z"/>
<path d="M3335 2690 c-3 -5 -1 -10 4 -10 6 0 11 5 11 10 0 6 -2 10 -4 10 -3 0
-8 -4 -11 -10z"/>
<path d="M544 2545 c-26 -39 -15 -148 22 -222 25 -50 34 -59 66 -67 49 -12 72
8 88 74 20 85 -9 166 -73 203 -69 40 -84 42 -103 12z"/>
<path d="M2875 2030 c4 -6 11 -8 16 -5 14 9 11 15 -7 15 -8 0 -12 -5 -9 -10z"/>
<path d="M2880 2000 c-13 -8 -12 -10 3 -10 9 0 17 5 17 10 0 12 -1 12 -20 0z"/>
<path d="M2960 2000 c0 -5 5 -10 11 -10 5 0 7 5 4 10 -3 6 -8 10 -11 10 -2 0
-4 -4 -4 -10z"/>
<path d="M3014 1948 c20 -29 21 -44 1 -28 -13 11 -14 10 -9 -3 8 -21 34 -30
34 -12 0 24 -19 65 -30 65 -7 0 -5 -9 4 -22z"/>
<path d="M3050 1948 c0 -9 9 -26 21 -39 l20 -24 -7 25 c-3 14 -12 32 -20 40
-12 12 -14 12 -14 -2z"/>
<path d="M3770 1898 c0 -16 5 -28 10 -28 13 0 13 20 0 40 -8 12 -10 9 -10 -12z"/>
<path d="M3600 1780 c0 -5 5 -10 10 -10 6 0 10 5 10 10 0 6 -4 10 -10 10 -5 0
-10 -4 -10 -10z"/>
<path d="M3560 1738 c0 -9 5 -20 11 -23 17 -11 20 0 4 21 -13 17 -14 17 -15 2z"/>
<path d="M3425 1642 c-31 -22 -41 -35 -44 -62 -3 -29 -5 -31 -11 -15 -5 12 -7
-6 -6 -46 1 -49 4 -65 14 -62 6 3 12 16 12 30 0 13 4 22 9 19 4 -3 13 6 20 21
6 14 14 23 17 20 3 -3 0 -15 -6 -27 -6 -12 -9 -24 -6 -27 3 -3 10 6 16 21 5
15 14 25 19 22 5 -3 9 10 8 29 -1 27 -5 34 -15 30 -11 -4 -12 -2 -5 7 10 12
27 68 21 68 -2 -1 -21 -13 -43 -28z m5 -41 c0 -5 -6 -13 -13 -19 -10 -8 -13
-6 -13 9 0 10 6 19 13 19 7 0 13 -4 13 -9z"/>
<path d="M3400 1421 c0 -6 4 -13 10 -16 6 -3 7 1 4 9 -7 18 -14 21 -14 7z"/>
<path d="M3375 1360 c3 -5 8 -10 11 -10 2 0 4 5 4 10 0 6 -5 10 -11 10 -5 0
-7 -4 -4 -10z"/>
<path d="M2990 1229 c0 -5 5 -7 10 -4 6 3 10 8 10 11 0 2 -4 4 -10 4 -5 0 -10
-5 -10 -11z"/>
<path d="M2931 1184 c0 -11 3 -14 6 -6 3 7 2 16 -1 19 -3 4 -6 -2 -5 -13z"/>
<path d="M2800 866 c0 -8 5 -18 10 -21 6 -3 10 1 10 9 0 8 -4 18 -10 21 -5 3
-10 -1 -10 -9z"/>
<path d="M2841 834 c0 -11 3 -14 6 -6 3 7 2 16 -1 19 -3 4 -6 -2 -5 -13z"/>
</g>
</svg>
