<?xml version="1.0" standalone="no"?>
<!DOCTYPE svg PUBLIC "-//W3C//DTD SVG 20010904//EN"
 "http://www.w3.org/TR/2001/REC-SVG-20010904/DTD/svg10.dtd">
<svg version="1.0" xmlns="http://www.w3.org/2000/svg"
 width="1024.000000pt" height="1024.000000pt" viewBox="0 0 1024.000000 1024.000000"
 preserveAspectRatio="xMidYMid meet">
<metadata>
Created by potrace 1.14, written by Peter Selinger 2001-2017
</metadata>
<g transform="translate(0.000000,1024.000000) scale(0.100000,-0.100000)"
fill="#000000" stroke="none">
<path d="M0 5120 l0 -5120 1621 0 c891 0 1618 3 1616 8 -2 4 -23 46 -46 94
-24 49 -47 86 -51 83 -5 -3 -7 6 -4 21 3 16 1 23 -6 19 -6 -4 -13 6 -16 24 -4
16 -15 38 -25 47 -14 13 -16 20 -8 31 9 10 8 13 -1 13 -9 0 -9 4 -2 13 16 20
4 81 -31 156 -11 24 -20 50 -20 58 0 7 -4 13 -9 13 -4 0 -8 7 -8 15 0 14 -11
19 -35 16 -5 -1 -2 5 7 12 15 12 15 17 3 41 -8 14 -10 24 -5 21 6 -4 10 0 9 7
-1 19 -17 55 -18 41 -2 -27 -20 -11 -27 22 -3 19 -11 32 -16 29 -7 -4 -7 0 0
12 11 22 4 84 -10 84 -6 0 -7 -8 -3 -17 5 -14 4 -15 -6 -6 -10 10 -9 15 1 28
12 15 4 21 -23 16 -5 -1 -5 13 -1 31 10 43 8 157 -4 188 -5 14 -8 36 -6 50 1
14 7 63 12 109 6 46 15 87 22 91 6 4 11 10 11 14 -4 27 2 47 16 62 10 10 22
27 28 38 6 11 20 25 31 31 11 6 19 15 17 21 -2 6 6 21 17 34 17 20 23 22 30
10 5 -8 13 -11 17 -6 4 4 0 13 -10 21 -13 9 -14 14 -4 18 12 4 57 -24 57 -37
0 -3 -7 -6 -15 -6 -8 0 -15 -4 -15 -9 0 -4 -15 -13 -32 -19 -24 -7 -27 -10
-12 -11 11 -1 29 -10 39 -21 12 -14 28 -19 52 -17 33 2 33 2 14 18 -19 15 -19
18 -5 30 19 16 81 22 89 9 4 -6 11 -8 16 -5 5 4 14 -6 19 -20 5 -14 14 -23 20
-20 5 3 10 -1 10 -9 0 -9 7 -16 15 -16 8 0 14 4 13 9 -2 5 1 9 7 10 5 0 9 -15
8 -34 -1 -20 4 -47 12 -61 15 -29 10 -60 -11 -68 -20 -8 -9 -94 24 -186 9 -26
10 -50 1 -56 -5 -3 -9 3 -10 13 0 11 -3 13 -6 5 -3 -7 1 -19 7 -27 7 -8 10
-21 7 -29 -3 -8 -2 -29 3 -45 5 -17 5 -31 1 -31 -14 0 -8 -35 11 -59 10 -13
16 -27 13 -30 -4 -3 -11 1 -16 9 -17 24 0 -31 18 -59 10 -16 11 -21 2 -16 -7
5 -6 -1 4 -15 12 -17 14 -28 6 -43 -7 -13 -7 -17 -1 -13 12 7 29 -64 26 -109
-1 -16 -6 -41 -12 -55 -5 -14 -6 -30 -1 -36 5 -6 6 -14 2 -17 -10 -11 -11 -61
0 -74 5 -7 7 -33 4 -58 -3 -25 -3 -44 1 -41 4 2 8 -14 9 -37 2 -72 5 -97 13
-92 4 3 10 -4 13 -15 3 -11 2 -20 -1 -20 -4 0 -7 -26 -7 -57 0 -41 4 -57 13
-55 6 1 12 -7 12 -18 0 -11 -4 -20 -10 -20 -5 0 -10 -11 -10 -25 l0 -25 1210
0 c666 0 1210 3 1210 7 0 3 -7 11 -15 17 -10 7 -18 34 -22 69 -3 31 -9 57 -13
57 -4 0 -10 26 -13 58 -3 31 -8 68 -11 82 -7 36 -24 147 -31 205 -3 28 -10 75
-15 105 -13 80 -15 124 -6 138 4 6 3 12 -2 12 -5 0 -10 19 -10 43 -1 63 -1 69
-10 63 -4 -2 -7 -21 -7 -42 2 -35 -23 -125 -25 -94 -1 8 -3 24 -6 35 -19 94
-19 275 1 365 10 41 18 87 20 102 2 14 6 32 10 38 4 6 9 25 12 43 8 48 47 118
87 155 20 18 36 27 36 19 0 -18 116 -57 183 -62 75 -5 74 -4 54 -19 -17 -13
-16 -14 6 -12 15 0 23 6 20 14 -3 7 3 12 16 12 12 0 21 -5 21 -11 0 -6 5 -7
12 -2 15 9 58 12 53 3 -2 -4 5 -13 16 -20 10 -8 19 -21 19 -28 0 -8 6 -12 15
-8 20 7 19 -4 -2 -20 -17 -13 -17 -13 2 -14 11 0 16 -4 10 -8 -5 -4 -10 -16
-10 -27 0 -13 -8 -21 -22 -23 -26 -4 -30 -20 -8 -28 8 -4 12 -10 9 -15 -3 -5
0 -9 6 -9 6 0 8 -5 4 -12 -4 -7 -3 -8 5 -4 6 4 14 0 18 -10 6 -15 7 -15 14 4
10 27 43 31 35 5 -3 -10 -7 -55 -11 -100 -3 -46 -10 -94 -14 -107 -5 -13 -8
-35 -7 -50 3 -22 1 -24 -11 -14 -8 7 -10 14 -4 17 6 4 6 12 1 21 -5 8 -5 21 1
32 6 12 6 18 -1 18 -5 0 -11 -7 -11 -15 -5 -55 -4 -81 4 -86 5 -3 2 -13 -6
-21 -17 -17 -25 -77 -13 -96 4 -7 2 -12 -4 -12 -7 0 -10 -7 -7 -15 4 -8 2 -17
-3 -20 -4 -3 -11 1 -13 7 -3 7 -6 3 -6 -10 -1 -16 3 -21 12 -16 8 5 8 2 -2 -9
-7 -9 -9 -17 -3 -17 6 0 7 -13 2 -37 -5 -21 -8 -54 -6 -74 2 -20 -1 -63 -5
-95 -5 -33 -11 -78 -14 -102 -3 -23 -6 -46 -6 -50 -1 -4 0 -10 1 -14 4 -14 7
-28 9 -40 1 -10 4 -9 10 1 6 9 8 3 6 -19 -1 -18 -8 -35 -14 -39 -8 -5 -10 -18
-5 -37 5 -16 7 -36 6 -44 -1 -8 -6 -43 -10 -77 l-9 -63 1619 0 1618 0 0 80 0
80 320 0 320 0 0 -80 0 -80 80 0 80 0 0 390 c0 297 -3 390 -12 390 -9 0 -9 3
0 12 15 15 16 140 1 155 -8 8 -8 13 0 17 8 5 11 1315 11 4642 l0 4634 -5120 0
-5120 0 0 -5120z m3524 4808 c60 -41 261 -268 283 -320 7 -15 17 -28 23 -28 5
0 10 -6 10 -14 0 -8 13 -28 29 -45 27 -29 60 -98 42 -86 -5 3 -12 -2 -15 -11
-4 -10 -1 -14 6 -11 19 6 48 -32 48 -63 0 -15 7 -33 16 -41 12 -10 14 -23 10
-53 -6 -38 18 -133 37 -153 4 -3 7 -17 7 -29 0 -13 10 -33 23 -45 13 -13 18
-23 11 -26 -7 -2 -10 -13 -7 -23 3 -11 10 -17 16 -13 6 4 8 0 4 -10 -3 -10 -2
-17 3 -17 5 0 9 -19 9 -42 -1 -24 4 -56 10 -71 23 -60 4 -107 -21 -52 -6 14
-15 25 -20 25 -5 0 -6 5 -2 12 4 7 3 8 -5 4 -6 -4 -9 -12 -6 -17 4 -5 1 -9 -6
-9 -8 0 -7 -6 3 -17 20 -23 15 -49 -13 -79 -12 -13 -18 -24 -14 -24 5 0 0 -7
-12 -15 -48 -34 11 -54 85 -30 17 6 22 3 22 -9 0 -9 -4 -17 -10 -17 -5 -1 -16
-2 -22 -3 -7 0 -14 -12 -16 -26 -2 -14 -19 -41 -39 -61 -22 -23 -33 -44 -30
-55 4 -18 4 -18 12 -1 14 34 61 77 72 66 12 -12 -3 -85 -22 -109 -21 -26 -27
-53 -11 -47 8 3 17 1 19 -6 2 -7 4 1 4 16 0 17 10 38 23 50 13 12 20 16 16 10
-12 -21 5 -15 26 9 10 12 26 44 36 71 15 44 80 127 100 127 22 0 35 -51 38
-164 3 -70 11 -141 20 -168 13 -40 20 -48 47 -54 18 -3 35 -11 39 -17 11 -17
61 95 65 146 2 27 7 56 12 65 5 10 12 52 16 95 7 78 15 92 34 60 6 -10 11 -15
11 -10 0 4 -5 16 -12 27 -7 10 -9 23 -5 27 5 4 12 1 17 -7 7 -10 10 -11 10 -2
0 6 9 12 20 12 11 0 20 -6 20 -12 0 -10 2 -10 9 0 6 9 19 11 44 7 35 -7 36 -6
48 34 6 22 15 39 18 36 10 -5 25 6 44 35 9 13 17 19 17 12 0 -7 5 -10 11 -7 6
4 5 -2 -2 -13 -18 -29 -2 -42 19 -16 9 12 27 24 39 27 19 4 21 1 18 -25 -2
-16 -9 -35 -15 -43 -20 -24 -48 -143 -45 -187 2 -24 -1 -51 -7 -62 -19 -35
-44 -141 -38 -163 6 -24 22 -19 33 10 4 10 11 15 17 12 5 -3 15 -3 21 1 8 4 7
9 -2 15 -10 6 -11 9 -1 9 6 0 12 7 12 15 0 7 6 18 14 22 7 4 18 18 25 31 9 17
9 22 -1 23 -7 0 -1 5 15 11 19 7 27 17 27 33 0 23 21 48 36 43 5 -1 28 8 52
20 70 37 103 72 67 72 -8 0 -15 -4 -15 -9 0 -5 -9 -7 -19 -4 -19 5 -19 5 0 24
10 10 19 24 19 31 0 19 68 76 79 65 12 -12 25 28 14 45 -9 15 -11 88 -2 88 3
0 11 -15 17 -32 5 -18 10 -26 11 -17 1 9 12 36 26 60 41 73 46 90 57 184 17
143 52 271 104 375 45 91 101 189 115 200 3 3 10 13 15 22 18 34 109 138 121
138 6 0 16 22 23 49 6 27 17 57 24 67 12 16 18 14 75 -31 60 -47 117 -127 104
-148 -3 -6 -1 -7 5 -3 6 3 16 -3 22 -14 6 -11 8 -20 5 -20 -3 0 2 -12 12 -26
9 -15 17 -39 18 -54 1 -15 6 -40 12 -56 16 -44 37 -117 39 -137 1 -10 6 -23
13 -30 6 -6 11 -19 11 -28 0 -9 6 -22 14 -28 8 -7 15 -20 15 -29 2 -51 12
-140 21 -173 6 -21 10 -41 9 -46 -4 -22 2 -35 15 -30 10 4 14 -3 14 -29 0 -19
-4 -31 -9 -28 -5 3 -9 1 -9 -4 0 -6 6 -12 13 -15 9 -3 12 -50 12 -188 0 -176
-1 -184 -20 -187 -11 -2 -25 -10 -31 -18 -9 -12 -14 -11 -28 5 -14 16 -29 18
-93 15 -46 -2 -83 1 -90 8 -10 8 -21 2 -47 -26 -24 -25 -40 -34 -52 -29 -10 3
-15 2 -12 -3 6 -9 -16 -36 -23 -29 -2 1 -10 -3 -17 -11 -7 -8 -9 -14 -5 -15
29 -3 48 -9 51 -18 2 -5 10 -7 18 -4 20 8 18 -24 -3 -36 -10 -6 -14 -11 -8
-11 5 0 -1 -7 -13 -16 -12 -8 -20 -20 -17 -25 4 -5 -2 -9 -12 -9 -14 0 -8 -10
22 -39 36 -33 39 -39 26 -52 -9 -8 -19 -13 -22 -12 -4 1 -9 -7 -12 -17 -5 -21
8 -26 31 -11 9 5 22 0 39 -15 14 -13 41 -28 61 -35 21 -6 43 -16 50 -22 8 -6
12 -6 12 1 0 6 7 9 15 6 9 -4 14 -13 13 -22 -2 -9 6 -18 17 -21 15 -5 20 -15
20 -43 0 -20 -3 -34 -6 -32 -3 2 -11 -8 -17 -21 -6 -14 -8 -24 -4 -24 19 3 29
-2 29 -16 0 -8 -4 -12 -9 -9 -16 10 -8 -19 10 -33 9 -8 11 -11 3 -7 -9 4 -12
2 -9 -7 3 -8 -1 -19 -8 -26 -8 -8 -11 -35 -10 -72 2 -33 -1 -58 -5 -55 -9 5
-16 -17 -28 -93 -8 -51 -8 -51 16 -42 32 12 32 12 29 -14 -3 -33 -14 -47 -31
-40 -19 7 -19 -4 0 -23 14 -14 19 -11 16 9 0 4 11 7 27 7 25 -1 26 -2 9 -14
-12 -9 -14 -16 -7 -21 15 -9 3 -24 -18 -20 -9 1 -11 0 -4 -2 7 -3 10 -9 7 -14
-4 -5 -1 -9 6 -9 9 0 9 -3 0 -14 -8 -10 -9 -16 -1 -21 5 -3 10 -15 10 -26 0
-11 -4 -17 -10 -14 -6 4 -7 -6 -3 -26 4 -19 2 -30 -3 -26 -6 3 -11 -3 -11 -14
-2 -18 0 -19 15 -7 15 11 15 10 0 -8 -23 -26 -23 -33 0 -29 9 1 12 0 5 -2 -6
-2 -14 -11 -17 -19 -3 -8 -2 -13 2 -10 5 3 8 -3 8 -12 -1 -9 3 -17 9 -17 5 0
9 4 7 9 -2 5 4 3 13 -4 14 -12 18 -36 4 -28 -3 2 -13 -3 -21 -10 -13 -11 -17
-9 -22 13 -4 14 -11 25 -17 25 -6 0 -8 -4 -5 -9 3 -5 -1 -11 -9 -15 -8 -3 -15
-10 -15 -15 0 -6 8 -7 18 -4 15 6 15 5 4 -10 -8 -9 -16 -29 -18 -44 -6 -47
-11 -67 -23 -96 -6 -16 -11 -40 -12 -55 0 -24 -1 -25 -8 -7 -5 11 -7 23 -5 27
3 4 0 9 -6 13 -6 4 -13 -7 -17 -25 -3 -18 -11 -34 -17 -36 -14 -5 -18 -84 -5
-84 5 0 3 -13 -6 -30 -9 -16 -12 -30 -8 -30 4 0 -3 -9 -15 -20 -12 -12 -22
-27 -22 -35 0 -16 -15 -20 -23 -7 -4 8 2 -17 9 -34 3 -6 -2 -11 -10 -11 -8 0
-12 6 -9 16 5 13 3 14 -8 4 -10 -10 -10 -16 -1 -25 14 -14 16 -32 3 -24 -5 3
-11 -1 -15 -9 -8 -21 -26 -19 -26 3 0 14 -2 15 -10 2 -5 -9 -5 -19 2 -27 6 -8
8 -16 4 -20 -3 -3 -6 -1 -6 5 0 7 -4 12 -10 12 -5 0 -10 -9 -10 -20 0 -10 -6
-23 -12 -27 -7 -4 -21 -24 -32 -43 -10 -19 -26 -41 -34 -47 -12 -10 -13 -13
-2 -13 7 0 11 -2 9 -4 -2 -2 -7 -4 -10 -3 -3 1 -20 -14 -37 -33 -18 -19 -32
-30 -33 -25 0 6 -4 0 -9 -12 -6 -16 -18 -23 -36 -23 -20 0 -25 -4 -20 -16 8
-22 -17 -44 -51 -44 -22 0 -25 -2 -13 -10 12 -8 9 -10 -12 -10 -16 0 -28 -5
-28 -11 0 -5 5 -7 11 -3 7 4 7 -1 -1 -16 -7 -12 -21 -25 -32 -28 -13 -3 -18
-11 -15 -24 5 -16 3 -17 -9 -7 -12 10 -17 10 -27 0 -7 -7 -7 -12 -2 -11 35 7
20 -16 -27 -41 -15 -8 -43 -27 -64 -44 -99 -79 -108 -98 -79 -169 8 -20 16
-39 16 -43 1 -5 6 -19 11 -33 20 -53 20 -175 -1 -250 -23 -83 -27 -89 -95
-153 -40 -37 -68 -53 -126 -71 -41 -13 -76 -29 -78 -35 -8 -24 9 -77 33 -105
21 -24 27 -27 40 -16 12 10 18 10 30 0 13 -11 12 -15 -9 -31 -21 -17 -23 -24
-15 -47 8 -24 14 -27 52 -26 23 1 53 5 67 8 14 4 40 8 58 10 18 2 42 12 54 22
12 11 28 24 35 29 8 6 20 15 27 22 8 7 16 10 19 7 3 -3 28 7 56 22 48 24 57
26 129 19 217 -19 373 -53 466 -103 17 -9 37 -15 44 -14 6 2 12 -1 12 -5 0 -4
16 -9 35 -9 72 -3 125 -66 123 -147 0 -32 -6 -51 -15 -54 -11 -4 -13 -23 -8
-89 5 -68 3 -84 -9 -84 -15 0 -28 -34 -20 -54 3 -7 21 -13 42 -14 20 -2 44 -9
53 -17 8 -8 20 -15 26 -15 6 0 13 -7 17 -15 4 -12 -4 -15 -39 -15 -24 0 -46
-4 -50 -9 -3 -6 -14 -8 -25 -6 -11 2 -24 -4 -30 -13 -9 -16 -11 -16 -25 2 -13
17 -15 17 -21 3 -3 -9 -12 -13 -20 -10 -9 3 -14 -1 -14 -11 0 -14 -4 -15 -21
-5 -12 6 -19 7 -15 1 3 -5 -7 -12 -22 -15 -42 -9 -92 -44 -86 -61 7 -18 -42
-57 -64 -49 -9 3 -14 3 -10 -1 8 -10 -23 -41 -63 -61 -17 -9 -47 -31 -66 -48
-37 -34 -103 -127 -103 -145 0 -6 -11 -19 -25 -30 -14 -11 -25 -30 -25 -41 0
-12 -11 -33 -24 -46 -13 -13 -21 -26 -18 -29 3 -3 0 -6 -6 -6 -12 0 -26 -27
-52 -97 -7 -18 -15 -31 -19 -29 -3 2 -7 -9 -8 -25 -4 -66 -6 -79 -13 -79 -7 0
-35 -91 -47 -152 -3 -16 -9 -28 -14 -28 -5 0 -9 -6 -9 -14 0 -11 -11 -14 -42
-11 -24 2 -83 5 -131 5 -64 1 -90 5 -93 15 -3 8 -12 11 -20 8 -8 -3 -11 -10
-7 -17 4 -6 -1 -5 -10 3 -9 7 -17 9 -17 4 0 -6 -26 -8 -62 -6 -62 4 -100 4
-168 1 -73 -4 -201 2 -196 10 2 4 -12 7 -32 6 -115 -6 -132 -8 -132 -16 0 -6
-6 -8 -12 -5 -7 2 -12 10 -11 16 2 6 -9 11 -23 11 -14 0 -23 -4 -20 -8 3 -5
-26 -8 -63 -8 -38 1 -67 4 -64 9 2 4 -1 7 -6 7 -6 0 -11 -6 -11 -12 0 -10 -3
-9 -9 1 -6 9 -16 11 -32 5 -30 -10 -181 -7 -188 3 -7 10 -50 9 -74 -1 -10 -5
-23 -3 -33 4 -11 10 -18 10 -26 2 -8 -8 -15 -7 -25 6 -13 16 -14 16 -9 0 4
-13 0 -16 -16 -13 -11 3 -29 0 -39 -5 -10 -6 -20 -6 -23 -2 -9 14 -61 9 -58
-6 2 -10 -2 -10 -18 -2 -23 12 -52 64 -42 75 4 4 0 6 -8 3 -8 -3 -21 1 -28 9
-15 15 -9 43 8 43 6 0 8 4 5 10 -3 5 -15 10 -26 10 -16 0 -19 4 -14 21 5 16 4
19 -5 14 -8 -5 -11 -4 -7 2 4 6 0 28 -9 48 -8 20 -13 40 -9 43 3 3 -4 15 -15
27 -10 11 -26 39 -34 62 -8 23 -31 68 -52 100 -44 70 -59 163 -40 255 12 58
15 64 73 117 23 21 33 41 38 74 4 25 13 48 21 51 8 3 14 15 14 26 0 11 5 20
10 20 6 0 10 -9 10 -21 0 -11 4 -17 11 -14 5 4 8 12 6 18 -2 7 2 18 10 25 7 8
11 17 8 22 -3 4 2 11 11 14 8 3 12 11 8 17 -5 8 -17 0 -36 -22 l-29 -34 20 41
c18 37 22 40 53 37 30 -3 35 0 50 34 9 21 19 51 22 67 3 15 11 38 19 50 19 30
29 58 17 51 -30 -18 14 65 47 89 14 11 23 14 19 8 -4 -7 -5 -12 -3 -12 3 0 15
16 26 36 38 63 123 152 173 179 26 14 48 30 48 34 0 10 68 39 100 43 20 2 24
8 22 28 -1 14 -7 27 -12 28 -6 2 -10 8 -10 14 0 5 -11 24 -24 41 -24 32 -43
114 -32 142 6 17 33 11 33 -8 0 -7 19 -52 43 -100 38 -79 68 -115 82 -101 11
11 172 5 245 -9 43 -9 85 -16 93 -16 20 -1 110 -8 188 -15 68 -6 71 -3 46 50
-17 36 -29 42 -37 22 -4 -8 -6 -7 -6 3 -1 12 -14 19 -46 23 -25 4 -49 4 -55 1
-5 -3 -10 0 -11 7 0 9 -2 10 -5 1 -7 -15 -35 -5 -52 19 -7 10 -18 15 -24 12
-6 -4 -6 1 1 14 7 14 8 23 1 27 -15 9 -32 -4 -23 -18 4 -7 0 -6 -10 2 -9 7
-17 20 -17 28 0 13 3 13 15 3 18 -15 20 1 3 18 -7 7 -17 8 -30 1 -12 -6 -18
-6 -18 1 0 5 -7 10 -15 10 -17 0 -20 16 -5 25 6 4 7 12 3 18 -3 7 3 4 14 -6
19 -16 21 -16 27 -2 11 29 6 39 -9 19 -14 -19 -14 -19 -15 3 0 12 5 25 10 28
6 4 8 10 5 15 -3 4 2 11 11 14 8 3 12 2 9 -4 -3 -6 -2 -10 4 -10 5 0 12 6 15
13 5 10 7 10 12 0 3 -7 10 -13 15 -13 17 0 49 -38 36 -44 -7 -3 -6 -5 3 -5 8
0 22 4 30 9 13 9 13 11 0 19 -8 6 -11 13 -8 16 10 10 28 -4 28 -21 0 -8 7 -14
16 -14 8 0 13 -4 9 -9 -3 -6 6 -6 25 -1 50 14 103 -17 112 -65 4 -23 37 -57
48 -50 5 3 10 0 12 -7 3 -7 34 -12 84 -14 76 -2 80 -1 112 30 64 59 74 93 69
225 -3 64 -10 138 -16 164 -14 65 -47 136 -64 143 -8 3 -31 -6 -51 -20 -46
-31 -124 -45 -137 -25 -6 10 -3 15 9 17 9 2 21 8 26 13 6 5 24 9 40 9 45 0
134 45 145 72 5 13 24 38 42 57 19 19 34 41 36 49 2 16 24 34 32 27 2 -3 -2
-11 -9 -20 -11 -13 -10 -14 6 -8 10 4 25 15 33 25 7 11 24 23 37 28 13 5 24
16 24 25 0 8 6 15 13 15 7 0 26 14 42 30 17 18 23 30 15 30 -7 0 -11 2 -9 4 2
2 7 4 10 3 12 -3 49 36 49 51 0 8 6 12 14 9 10 -4 12 0 9 14 -4 12 0 19 10 19
14 0 27 20 27 41 0 16 -32 10 -46 -8 -11 -15 -13 -15 -14 -3 0 8 14 24 30 35
16 11 30 23 30 27 0 9 -31 -2 -46 -16 -29 -27 -59 -50 -64 -48 -3 1 -13 -1
-22 -4 -19 -6 -25 -24 -8 -24 6 0 10 4 10 8 0 5 7 9 15 9 8 0 15 -4 15 -9 0
-5 6 -6 13 -2 8 5 9 4 2 -4 -6 -6 -19 -13 -30 -15 -33 -5 -47 -17 -36 -31 8
-9 7 -13 -4 -13 -17 0 -20 18 -5 33 13 13 4 40 -16 48 -11 4 -12 2 -2 -14 7
-10 9 -22 6 -25 -11 -11 -112 -34 -133 -31 -11 2 -23 -2 -27 -8 -5 -8 -8 -7
-8 2 0 7 -12 12 -27 11 -16 0 -22 -3 -15 -6 6 -2 10 -9 6 -14 -3 -5 6 -9 19
-9 14 0 28 -7 31 -16 9 -24 86 -10 86 17 0 4 -15 4 -33 -1 -28 -8 -30 -8 -14
4 10 8 26 13 35 11 9 -2 20 -4 23 -4 4 -1 9 -10 12 -22 4 -16 2 -19 -10 -15
-9 4 -21 2 -27 -3 -16 -13 -49 -17 -63 -8 -9 6 -13 1 -13 -14 0 -18 -5 -21
-35 -17 -27 3 -32 1 -23 -9 5 -7 8 -20 4 -28 -6 -17 -26 -20 -26 -4 0 5 6 7
13 3 8 -5 8 -3 -2 9 -15 19 -35 12 -27 -10 4 -8 1 -11 -5 -8 -6 4 -10 1 -8 -6
3 -29 -2 -37 -21 -32 -11 3 -20 12 -20 19 0 20 -9 17 -32 -8 -11 -13 -17 -17
-13 -10 4 8 -2 12 -20 12 -14 0 -24 -4 -21 -9 3 -5 -5 -11 -19 -13 -13 -3 -22
-1 -19 3 3 5 -2 6 -10 3 -9 -3 -16 -10 -16 -15 0 -4 -10 -13 -21 -20 -12 -6
-19 -7 -16 -2 8 13 -50 46 -66 37 -30 -19 -34 -29 -18 -41 15 -12 15 -13 -1
-7 -10 3 -18 -1 -22 -14 -4 -10 -18 -24 -32 -30 -35 -17 -48 -15 -29 4 19 20
16 25 -11 18 -16 -4 -20 -11 -16 -31 4 -21 2 -25 -11 -20 -9 3 -17 1 -19 -5
-6 -16 -59 -16 -66 0 -3 10 -7 10 -12 2 -5 -9 -16 -8 -41 3 -19 7 -51 17 -71
21 -21 4 -40 12 -44 17 -4 8 1 9 17 4 23 -6 22 -5 -6 22 -17 16 -33 24 -37 18
-4 -6 -25 -3 -55 8 -26 9 -54 17 -62 17 -7 0 -36 16 -63 36 -54 38 -74 40 -37
3 17 -17 18 -21 5 -16 -10 4 -25 7 -34 8 -12 0 -13 2 -4 6 19 8 -15 43 -42 43
-12 0 -32 10 -46 21 -14 11 -20 18 -14 15 7 -3 14 1 17 9 4 9 1 12 -7 9 -32
-12 -41 110 -11 146 7 8 21 38 30 66 15 48 52 99 85 120 8 5 30 26 48 47 17
21 32 32 32 25 0 -9 3 -9 12 0 16 16 25 15 31 -2 4 -10 1 -13 -9 -9 -17 6 -18
-6 0 -29 18 -24 28 -23 62 7 16 14 37 26 47 26 36 3 42 5 40 17 -2 7 4 9 14 5
12 -5 15 -2 10 10 -3 9 -1 19 4 23 6 4 -7 23 -31 45 -38 36 -41 41 -34 76 3
21 13 45 20 53 11 14 10 16 -7 17 -10 1 -17 -2 -15 -6 3 -4 -1 -8 -8 -8 -8 0
-11 8 -8 19 4 16 1 17 -21 9 -17 -7 -28 -7 -32 -1 -10 15 -25 12 -25 -6 0 -8
-4 -12 -10 -9 -5 3 -10 -1 -10 -9 0 -8 8 -19 17 -25 12 -6 17 -21 16 -48 0
-21 2 -32 4 -25 6 15 33 16 33 2 0 -6 -6 -12 -12 -14 -48 -15 -51 -17 -40 -28
7 -7 12 -20 12 -30 0 -13 -8 -18 -30 -18 -19 0 -38 -9 -50 -23 -11 -13 -43
-34 -70 -48 -27 -13 -50 -29 -50 -35 0 -5 -9 -20 -19 -31 -11 -12 -18 -23 -15
-26 4 -4 -4 -24 -49 -124 -5 -12 -13 -20 -18 -18 -4 3 -5 -5 -2 -17 4 -19 3
-20 -6 -8 -6 8 -11 10 -11 5 0 -6 5 -16 12 -23 9 -9 9 -12 0 -12 -8 0 -10 -8
-7 -23 10 -37 -42 -35 -85 3 -18 16 -40 30 -47 30 -8 0 -12 4 -8 9 3 5 0 13
-6 16 -5 4 -8 13 -5 21 3 8 1 14 -4 14 -6 0 -10 8 -10 18 0 12 -3 13 -8 5 -11
-18 -119 86 -128 123 -4 16 -16 40 -26 54 -17 21 -48 84 -48 96 0 2 6 4 14 4
17 0 29 25 30 67 1 42 11 49 40 29 34 -22 36 -21 36 19 0 22 -6 38 -15 41 -8
3 -17 14 -20 24 -7 23 -47 31 -64 13 -11 -12 -16 -12 -30 1 -10 9 -21 13 -24
9 -4 -3 -7 -1 -7 5 0 7 5 12 11 12 6 0 0 14 -12 31 -16 23 -24 28 -30 17 -5
-7 -9 -8 -9 -2 0 5 7 19 16 30 8 10 13 14 10 7 -4 -6 -2 -14 3 -17 12 -8 7 24
-5 32 -5 4 -10 18 -11 32 -2 35 -10 65 -23 89 -7 14 -7 21 0 21 5 0 10 -6 10
-14 0 -25 18 -28 30 -5 14 26 4 62 -10 39 -8 -12 -10 -12 -10 -1 0 11 -3 11
-17 0 -10 -7 -7 0 7 15 14 16 19 26 13 22 -8 -4 -13 -1 -13 8 0 10 -6 13 -15
10 -8 -4 -15 -1 -15 6 0 6 -5 8 -10 5 -5 -3 -10 -1 -10 4 0 6 7 11 15 11 8 0
15 -4 15 -8 0 -5 6 -9 13 -9 6 0 19 -4 28 -7 17 -7 33 23 29 53 -1 7 3 10 9 6
7 -4 11 3 11 17 0 19 2 20 11 8 8 -11 9 -6 4 20 -15 90 -14 126 6 114 5 -3 9
15 9 40 0 37 3 46 18 46 13 0 14 -2 3 -9 -10 -6 -10 -10 -1 -16 6 -4 9 -13 6
-21 -3 -7 1 -31 9 -53 7 -22 10 -42 7 -46 -4 -4 0 -6 8 -3 8 3 15 10 15 16 0
28 16 21 32 -14 10 -22 21 -40 26 -42 4 -2 7 -10 7 -18 0 -21 96 -92 142 -105
162 -43 263 -17 366 95 42 45 88 130 97 176 2 12 7 30 10 41 4 11 2 19 -5 19
-8 0 -10 9 -5 28 13 53 12 77 -3 104 -9 15 -19 25 -22 23 -4 -3 -5 6 -3 19 4
18 -4 30 -35 54 -22 18 -44 32 -49 32 -4 0 -13 8 -20 18 -14 23 -114 52 -174
51 -43 -1 -82 -11 -209 -52 -36 -12 -71 -20 -77 -19 -17 4 -63 -28 -63 -43 0
-15 -29 -41 -57 -49 -18 -6 -20 -4 -16 14 3 11 9 20 13 20 11 0 0 43 -13 51
-16 11 -53 -38 -67 -86 -7 -25 -10 -68 -8 -95 3 -28 1 -53 -3 -56 -5 -3 -9
-11 -9 -17 0 -8 3 -8 9 2 6 10 10 10 16 1 4 -6 0 -19 -9 -29 -9 -10 -16 -25
-16 -34 0 -9 -4 -19 -10 -22 -9 -5 -32 -72 -36 -105 -1 -8 -9 -35 -17 -60 -35
-103 -50 -307 -34 -446 4 -34 3 -72 -2 -86 -9 -24 14 -137 38 -186 4 -9 18
-39 31 -66 13 -26 37 -65 52 -85 15 -20 38 -49 50 -66 29 -39 166 -176 197
-195 13 -8 33 -22 45 -31 26 -20 191 -99 206 -99 6 0 21 -7 34 -15 13 -9 32
-18 42 -20 18 -4 164 -45 303 -86 35 -10 67 -17 71 -14 4 3 10 -4 13 -15 4
-16 0 -20 -18 -20 -13 0 -29 8 -34 18 -6 9 -11 11 -11 5 0 -7 -5 -13 -11 -13
-5 0 -8 4 -4 9 6 11 -33 26 -42 17 -4 -3 1 -6 10 -6 10 0 17 -4 17 -9 0 -11
-52 -10 -61 2 -3 4 -15 9 -27 12 -31 6 -43 15 -36 26 3 6 0 9 -7 8 -24 -5 -83
10 -124 31 -22 11 -51 20 -65 20 -14 0 -36 6 -50 13 -34 18 -121 22 -118 5 3
-14 75 -50 157 -78 31 -10 76 -26 101 -35 25 -9 56 -18 70 -20 135 -21 260
-50 260 -62 0 -13 -35 -10 -98 9 -33 10 -43 12 -132 23 -42 5 -164 32 -255 56
-57 15 -148 67 -235 132 -40 31 -76 54 -78 52 -12 -12 -269 229 -287 270 -8
17 -32 62 -53 100 -118 216 -112 191 -126 535 -4 85 -8 164 -11 176 -5 24 22
175 33 184 4 3 8 22 9 44 2 21 8 46 15 54 11 13 11 14 -1 7 -10 -6 -12 -4 -7
4 5 7 14 10 22 7 7 -3 16 -1 19 4 4 6 -3 10 -15 10 -12 0 -19 4 -16 8 3 5 8
23 11 41 5 31 101 232 178 374 66 123 159 250 239 330 43 43 78 84 78 91 0 6
-18 30 -40 51 -38 37 -100 133 -129 200 -44 100 -104 316 -116 415 -4 30 -10
72 -15 92 -11 54 0 218 15 212 9 -4 9 12 0 69 -6 41 -8 83 -4 94 4 12 7 83 7
160 -1 200 9 223 94 213 33 -3 67 -16 92 -32z m1065 -360 c-1 -31 -1 -31 -8
-8 -5 14 -6 28 -4 33 9 15 13 6 12 -25z m131 -330 c0 -7 -5 -20 -11 -28 -9
-13 -10 -12 -5 3 3 9 1 17 -4 17 -6 0 -10 5 -10 10 0 6 7 10 15 10 8 0 15 -6
15 -12z m1315 -68 c3 -5 1 -10 -4 -10 -6 0 -11 5 -11 10 0 6 2 10 4 10 3 0 8
-4 11 -10z m-1254 -62 c13 -25 2 -22 -25 5 -12 12 -20 29 -18 36 5 15 20 0 43
-41z m1256 20 c-3 -8 -6 -5 -6 6 -1 11 2 17 5 13 3 -3 4 -12 1 -19z m-1307
-18 c0 -5 -5 -10 -11 -10 -5 0 -7 5 -4 10 3 6 8 10 11 10 2 0 4 -4 4 -10z m78
-71 c-3 -8 -7 -3 -11 10 -4 17 -3 21 5 13 5 -5 8 -16 6 -23z m62 -79 c13 -19
29 -38 34 -42 6 -4 8 -10 4 -13 -6 -6 -88 97 -88 110 0 9 23 -16 50 -55z m-10
-79 c0 -6 -4 -13 -10 -16 -5 -3 -10 1 -10 9 0 9 5 16 10 16 6 0 10 -4 10 -9z
m74 -6 c3 -8 1 -15 -3 -15 -5 0 -11 7 -15 15 -3 8 -1 15 3 15 5 0 11 -7 15
-15z m-513 -229 c5 3 9 0 9 -6 0 -15 -23 -7 -26 8 -1 7 0 8 3 2 2 -5 9 -8 14
-4z m-13 -41 c-3 -3 -9 2 -12 12 -6 14 -5 15 5 6 7 -7 10 -15 7 -18z m-601
-809 c24 -3 91 -68 85 -84 -1 -5 3 -16 11 -24 9 -9 13 -30 11 -58 -4 -61 -6
-70 -16 -70 -5 0 -6 -5 -3 -10 4 -6 3 -10 -2 -9 -18 3 -34 -2 -29 -9 2 -4 -3
-13 -13 -19 -14 -9 -17 -6 -19 18 -2 25 1 27 23 23 23 -4 25 -2 19 23 -4 16
-15 37 -24 48 -10 11 -20 36 -23 56 -6 46 -22 78 -55 108 -21 18 -23 22 -7 16
11 -4 30 -8 42 -9z m-29 -30 c22 -22 22 -22 4 -44 -21 -24 -47 -29 -56 -9 -3
8 -14 2 -30 -18 -29 -34 -33 -55 -11 -55 19 0 19 -14 1 -29 -26 -21 -26 -50 0
-70 13 -10 24 -27 24 -37 0 -14 -2 -16 -9 -6 -4 7 -15 14 -24 16 -23 3 -69 45
-62 55 2 5 -2 12 -11 15 -13 5 -15 1 -9 -21 5 -21 3 -25 -5 -17 -15 15 -27 89
-12 80 8 -4 8 3 1 26 -12 43 -12 41 10 64 82 85 137 100 189 50z m2829 -338
c-8 -13 -31 -41 -50 -63 -26 -29 -36 -35 -37 -23 0 10 21 40 48 67 48 50 66
59 39 19z m93 -2 c0 -2 -7 -17 -15 -32 -8 -16 -15 -38 -15 -49 0 -11 -8 -33
-19 -48 -15 -24 -19 -26 -25 -12 -9 24 11 92 36 121 19 21 38 31 38 20z
m-3418 -124 c-6 -2 -9 -9 -6 -17 3 -7 1 -15 -4 -19 -10 -6 -13 18 -6 54 5 23
6 24 16 5 8 -14 8 -20 0 -23z m3378 -72 c0 -5 -2 -10 -4 -10 -3 0 -8 5 -11 10
-3 6 -1 10 4 10 6 0 11 -4 11 -10z m257 -37 c-16 -16 -17 -16 -17 0 0 10 5 15
10 12 6 -3 10 -1 10 6 0 7 3 9 7 5 4 -3 -1 -14 -10 -23z m-927 2 c0 -8 7 -15
16 -15 8 0 12 -5 9 -11 -4 -6 -14 -8 -22 -5 -8 3 -11 1 -8 -4 3 -6 2 -10 -3
-10 -6 0 -12 7 -16 15 -6 18 2 45 15 45 5 0 9 -7 9 -15z m-2718 -17 c-7 -7
-12 -8 -12 -2 0 14 12 26 19 19 2 -3 -1 -11 -7 -17z m2753 -37 c-8 -14 -35
-14 -35 0 0 6 7 9 15 5 8 -3 15 0 15 6 0 6 3 9 6 5 3 -3 3 -10 -1 -16z m-2758
-263 c-3 -8 -6 -5 -6 6 -1 11 2 17 5 13 3 -3 4 -12 1 -19z m886 -67 l26 -29
-27 -8 c-49 -14 -48 -15 -43 51 2 23 15 18 44 -14z m1487 -204 c0 -7 -13 -23
-30 -35 -16 -13 -30 -19 -30 -14 0 5 11 15 25 22 14 7 25 19 25 27 0 7 2 13 5
13 3 0 5 -6 5 -13z m-495 -187 c3 -5 1 -10 -4 -10 -6 0 -11 5 -11 10 0 6 2 10
4 10 3 0 8 -4 11 -10z m282 -42 c-3 -8 -6 -5 -6 6 -1 11 2 17 5 13 3 -3 4 -12
1 -19z m-237 -48 c0 -5 -5 -10 -11 -10 -5 0 -7 5 -4 10 3 6 8 10 11 10 2 0 4
-4 4 -10z m-560 -100 c0 -5 -2 -10 -4 -10 -3 0 -8 5 -11 10 -3 6 -1 10 4 10 6
0 11 -4 11 -10z m-867 -182 c31 -18 35 -25 42 -83 4 -27 9 -59 12 -70 l5 -20
-17 20 c-17 19 -17 19 -3 -5 11 -18 13 -40 8 -80 -4 -30 -8 -52 -9 -48 0 4
-14 3 -29 -1 -28 -8 -28 -8 -26 32 1 22 -2 52 -6 66 -12 38 -19 201 -9 201 5
0 19 -6 32 -12z m617 -33 c0 -2 -9 -3 -20 -2 -11 1 -20 7 -20 14 0 11 5 11 20
3 11 -6 20 -13 20 -15z m43 -2 c-7 -2 -19 -2 -25 0 -7 3 -2 5 12 5 14 0 19 -2
13 -5z m47 -3 c0 -5 -4 -10 -10 -10 -5 0 -10 5 -10 10 0 6 5 10 10 10 6 0 10
-4 10 -10z m30 -5 c11 -13 10 -14 -4 -9 -9 3 -16 10 -16 15 0 13 6 11 20 -6z
m65 5 c3 -6 -4 -10 -17 -10 -18 0 -20 2 -8 10 19 12 18 12 25 0z m161 -13 c4
-4 -2 -7 -14 -7 -12 0 -22 4 -22 9 0 10 26 9 36 -2z m-58 -18 c-12 -7 -24 -7
-35 0 -15 9 -12 10 17 10 29 0 32 -1 18 -10z m182 -9 c0 -5 -2 -10 -4 -10 -3
0 -8 5 -11 10 -3 6 -1 10 4 10 6 0 11 -4 11 -10z m-1090 -319 c0 -5 9 -11 20
-14 24 -6 27 -30 4 -25 -20 4 -52 48 -35 48 6 0 11 -4 11 -9z m104 -53 c15
-10 -4 -9 -29 2 -11 5 -14 9 -7 9 6 1 13 9 13 19 1 14 2 13 6 -3 3 -11 10 -23
17 -27z m3364 -192 c3 -11 0 -16 -7 -12 -6 4 -11 1 -11 -6 0 -18 -20 12 -20
30 0 20 34 9 38 -12z m-2301 -50 c-4 -10 -1 -13 9 -9 8 3 21 0 29 -7 10 -9 15
-9 15 -1 0 6 5 11 10 11 6 0 10 -7 10 -15 0 -22 30 -34 62 -25 16 5 30 5 33
-1 6 -8 -9 -13 -29 -10 -4 1 -19 -5 -32 -14 -22 -14 -25 -14 -30 0 -8 20 -62
19 -86 -2 -17 -15 -18 -15 -18 0 0 10 -7 17 -15 17 -24 0 -29 29 -10 50 21 24
60 27 52 6z m228 -63 c-2 -10 -4 -21 -4 -25 -2 -21 -21 -5 -21 17 0 15 6 25
14 25 8 0 13 -8 11 -17z m-1525 -193 c-6 -11 -13 -20 -16 -20 -2 0 0 9 6 20 6
11 13 20 16 20 2 0 0 -9 -6 -20z m3218 -33 c24 -36 27 -47 12 -47 -15 0 -60
53 -60 72 0 25 21 13 48 -25z m292 -39 c38 -7 70 -16 70 -20 0 -4 9 -8 20 -8
11 0 20 -5 20 -11 0 -7 -10 -9 -27 -4 -50 12 -144 29 -190 34 -7 0 -13 6 -13
11 0 13 34 13 120 -2z m-22 -48 c1 -1 6 -3 11 -4 5 0 13 -5 18 -10 5 -5 2 -6
-6 -1 -9 5 -12 4 -7 -3 4 -7 13 -12 19 -12 7 0 19 -8 27 -17 21 -25 19 -129
-2 -145 -9 -7 -18 -25 -22 -40 -9 -41 -33 -25 -33 23 0 21 4 39 8 39 5 0 9 5
9 11 0 5 -4 7 -10 4 -13 -8 -24 38 -15 64 4 13 2 21 -5 21 -6 0 -8 -6 -5 -12
4 -7 -2 -2 -13 12 -11 13 -18 28 -16 32 2 3 0 9 -6 13 -20 13 -10 31 18 29 15
-1 28 -3 30 -4z m190 -22 c19 -24 30 -84 19 -104 -16 -28 -40 -44 -57 -37 -8
3 -23 5 -33 5 -15 -1 -16 1 -2 14 8 9 15 21 15 28 0 8 7 19 15 26 21 18 19 41
-5 47 -11 3 -20 12 -20 19 0 18 54 19 68 2z m-1448 -372 c0 -3 -4 -8 -10 -11
-5 -3 -10 -1 -10 4 0 6 5 11 10 11 6 0 10 -2 10 -4z m497 -407 c15 -6 43 -11
61 -10 19 0 30 -4 27 -9 -3 -6 3 -10 14 -10 27 0 51 -26 51 -57 0 -22 -3 -24
-22 -18 -53 16 -78 17 -78 3 0 -8 -7 -15 -15 -15 -8 0 -15 5 -15 10 0 6 -3 7
-6 4 -9 -8 16 -38 25 -32 4 2 8 -2 8 -10 0 -8 -3 -15 -7 -15 -4 0 -7 -7 -7
-15 0 -8 3 -12 7 -10 4 2 12 -7 19 -22 11 -23 10 -25 -7 -21 -15 4 -18 1 -14
-18 3 -15 14 -27 27 -30 19 -5 23 -12 21 -45 -2 -23 2 -39 9 -39 12 0 14 -39
2 -57 -4 -6 -2 -13 4 -15 11 -4 20 -96 11 -112 -3 -5 -5 -28 -5 -50 0 -23 -4
-44 -9 -47 -5 -3 -11 -26 -12 -51 -2 -25 -6 -50 -10 -56 -4 -7 -2 -12 5 -12 7
0 5 -8 -6 -20 -10 -11 -14 -20 -9 -20 5 0 3 -4 -4 -8 -7 -5 -15 -26 -18 -48
-4 -29 -3 -35 5 -24 6 8 11 10 11 5 0 -6 -4 -15 -9 -20 -5 -6 -11 -39 -13 -75
-1 -36 -7 -69 -13 -73 -7 -6 -6 -10 3 -14 6 -2 10 -9 7 -14 -4 -5 -7 -26 -9
-47 -2 -22 -6 -44 -10 -50 -3 -6 -2 -13 4 -17 9 -6 10 -85 0 -85 -3 0 -5 -22
-5 -50 0 -27 -2 -50 -5 -50 -3 0 -6 -8 -6 -17 -2 -43 -15 -126 -21 -136 -4 -7
-8 -15 -8 -19 0 -5 -3 -8 -7 -8 -5 0 -12 0 -18 0 -5 0 -10 8 -10 17 0 39 -19
-6 -24 -57 -3 -30 -5 -57 -6 -60 0 -3 -5 2 -10 10 -9 13 -10 13 -11 0 -6 -52
-3 -80 9 -80 7 0 11 4 8 9 -3 5 2 15 11 22 14 12 15 11 9 -8 -9 -27 8 -38 27
-18 24 24 29 18 10 -12 -10 -15 -12 -24 -5 -20 7 5 12 3 12 -7 0 -9 4 -16 9
-16 5 0 8 -8 6 -18 -2 -9 -4 -20 -4 -24 -1 -4 -15 -6 -31 -4 -17 2 -29 1 -27
-3 2 -3 9 -21 16 -38 7 -18 17 -30 22 -27 5 3 9 1 9 -5 0 -12 -127 -20 -157
-9 -30 10 -33 53 -3 45 11 -3 26 1 34 8 11 11 18 11 37 1 22 -11 25 -10 25 6
0 19 -24 20 -143 6 -18 -2 -16 -15 2 -22 12 -4 13 -10 3 -31 -11 -25 -50 -36
-47 -12 4 32 -2 46 -21 44 -11 -1 -22 -7 -24 -14 -6 -15 10 -27 24 -18 6 3 7
-1 4 -10 -4 -9 -27 -27 -53 -39 -25 -13 -66 -35 -92 -49 -25 -15 -55 -28 -68
-30 -12 -2 -27 -10 -32 -18 -7 -12 -9 -11 -9 2 0 8 20 25 45 38 24 12 48 27
51 33 4 7 2 8 -4 4 -7 -4 -12 -2 -12 5 0 7 8 9 21 6 17 -5 20 -2 16 14 -3 12
-1 19 6 17 7 -1 22 3 35 10 12 7 27 10 32 7 6 -3 7 1 4 9 -7 19 -54 17 -54 -2
0 -7 -3 -11 -8 -8 -12 7 -83 -29 -75 -39 5 -4 -4 -5 -19 -3 -17 3 -32 0 -39
-8 -6 -8 -15 -14 -20 -14 -4 0 -31 -21 -59 -47 -76 -70 -90 -79 -101 -62 -14
21 -7 175 8 172 7 -2 20 10 29 26 10 16 35 38 56 48 21 10 38 21 38 26 0 4
-20 7 -44 7 -32 0 -46 5 -50 17 -6 14 -9 15 -16 4 -13 -23 -38 -5 -62 44 -17
34 -20 50 -12 63 6 9 10 35 10 57 -1 36 -4 40 -25 40 -22 0 -25 5 -30 50 -5
57 -8 337 -3 405 2 25 1 66 -2 92 -3 26 -2 49 2 52 4 2 9 40 11 83 6 164 80
460 122 486 11 7 19 16 19 21 0 17 172 236 208 264 20 16 54 32 74 36 20 4 38
11 40 16 2 5 19 12 38 15 19 3 55 12 80 20 109 32 194 41 237 24z m-3169 -236
c3 -17 -1 -20 -21 -16 -22 4 -24 2 -20 -21 4 -20 11 -25 29 -24 13 1 24 9 24
17 0 22 38 -31 53 -77 13 -36 12 -40 -2 -34 -9 3 -23 13 -31 21 -13 13 -15 13
-18 -2 -2 -9 9 -28 23 -41 34 -32 30 -62 -7 -58 -14 2 -29 -2 -33 -7 -3 -6 -1
-11 5 -11 6 0 8 -5 4 -12 -5 -7 -3 -8 7 -3 48 31 81 -9 82 -100 0 -68 -11
-102 -24 -69 -5 12 -7 2 -7 -31 0 -27 -1 -54 -2 -60 -1 -5 -2 -12 0 -15 7 -19
6 -81 -1 -86 -5 -3 -9 -11 -9 -17 0 -7 4 -6 10 3 8 13 10 13 11 -2 1 -10 2
-24 3 -30 1 -7 -1 -24 -6 -38 -8 -24 -7 -24 7 -6 13 17 15 17 15 4 0 -9 -4
-20 -10 -23 -13 -8 -13 -55 0 -55 7 0 7 -6 0 -19 -12 -24 -13 -41 -1 -22 15
24 26 -56 11 -83 -6 -13 -11 -32 -10 -42 1 -10 1 -21 0 -24 -1 -3 -3 -20 -5
-38 -3 -23 0 -32 9 -29 13 5 17 -76 4 -88 -4 -4 0 -14 9 -23 14 -14 14 -16 -3
-22 -16 -6 -16 -7 -1 -13 9 -3 17 -12 17 -18 0 -8 -4 -9 -13 0 -8 6 -17 8 -20
4 -11 -11 -8 -51 5 -59 7 -5 8 -3 3 6 -5 9 -4 11 3 6 9 -5 9 -13 1 -28 -9 -16
-13 -18 -20 -7 -6 10 -8 8 -6 -8 0 -12 5 -19 9 -17 4 3 8 -6 8 -20 0 -24 -10
-31 -34 -27 -5 1 -6 -10 -4 -24 3 -15 1 -25 -6 -25 -7 0 -12 -9 -12 -19 0 -11
3 -19 6 -19 19 2 43 -4 33 -9 -7 -2 -13 -13 -13 -24 0 -10 -4 -19 -10 -19 -5
0 -10 -5 -10 -11 0 -6 7 -8 16 -5 10 4 18 -1 21 -14 3 -10 14 -22 24 -25 17
-6 23 -17 20 -37 0 -5 4 -8 9 -8 6 0 10 -14 10 -31 0 -18 -4 -28 -10 -24 -6 4
-10 12 -9 18 1 7 1 19 0 27 -1 13 -2 13 -11 0 -6 -9 -10 -10 -10 -3 0 6 5 15
10 18 11 7 4 25 -9 25 -16 0 -6 -78 13 -99 11 -12 17 -22 15 -24 -9 -6 -68 31
-61 38 4 4 -3 2 -16 -4 -12 -7 -20 -16 -17 -21 8 -13 -16 -18 -50 -10 -17 4
-50 5 -75 3 -38 -4 -42 -2 -31 11 10 12 9 14 -8 9 -12 -3 -18 -10 -15 -15 6
-10 -24 -37 -41 -38 -5 0 -4 4 4 9 9 6 11 15 6 27 -8 18 -8 18 -12 2 -3 -10
-8 -18 -13 -18 -5 0 -7 -8 -4 -17 5 -15 4 -15 -4 -3 -8 10 -7 18 0 28 9 10 8
16 -3 23 -8 5 -18 8 -24 8 -5 0 -4 -3 3 -6 9 -3 3 -12 -17 -24 -17 -10 -31
-23 -31 -29 0 -5 -6 -10 -14 -10 -12 0 -28 48 -31 95 0 6 -8 21 -18 36 -21 32
-33 89 -19 89 7 0 6 14 -3 41 -8 23 -15 54 -15 70 0 16 -4 29 -10 29 -5 0 -10
11 -10 25 0 14 -6 25 -12 26 -10 0 -10 2 0 6 15 6 16 33 2 33 -6 0 -9 12 -8
28 2 17 -1 26 -9 25 -7 -2 -13 4 -13 12 0 8 -8 15 -17 15 -12 0 -14 3 -6 8 11
7 13 78 1 97 -3 6 -5 52 -4 103 1 81 4 96 21 109 13 11 15 14 4 10 -14 -4 -15
2 -11 46 2 29 10 57 16 62 7 6 12 25 10 43 -1 22 2 32 9 29 7 -3 13 6 13 19 1
12 10 35 21 51 11 15 18 40 17 56 -2 15 0 26 4 23 4 -2 8 9 9 25 1 17 -2 27
-7 24 -6 -4 -10 -2 -10 4 0 5 4 12 9 15 5 3 7 16 3 28 -3 14 -1 19 6 14 8 -5
10 -2 6 8 -3 9 -2 16 3 16 5 0 14 19 21 43 7 23 15 48 18 55 3 7 -1 12 -11 12
-13 0 -14 4 -5 20 6 11 15 18 21 15 5 -4 9 1 9 10 0 9 -4 13 -10 10 -16 -10
-12 11 5 25 8 7 15 22 15 34 0 23 62 67 113 80 15 3 42 21 61 40 30 28 33 35
21 47 -23 23 -4 40 33 30 26 -8 32 -7 32 6 0 22 24 10 28 -14z m102 -192 c5
-11 10 -30 10 -43 0 -19 -3 -17 -20 15 -23 42 -24 47 -10 47 5 0 14 -9 20 -19z
m200 -71 c0 -4 -6 -7 -14 -7 -8 0 -12 6 -9 14 3 7 0 13 -6 13 -6 0 -11 5 -11
12 0 6 9 3 20 -7 11 -10 20 -21 20 -25z m-190 -15 c0 -8 -2 -15 -4 -15 -2 0
-6 7 -10 15 -3 8 -1 15 4 15 6 0 10 -7 10 -15z m220 -40 c0 -5 -5 -3 -10 5 -5
8 -10 20 -10 25 0 6 5 3 10 -5 5 -8 10 -19 10 -25z m-210 -15 c0 -5 -2 -10 -4
-10 -3 0 -8 5 -11 10 -3 6 -1 10 4 10 6 0 11 -4 11 -10z m-26 -266 c3 -8 2
-12 -4 -9 -6 3 -10 10 -10 16 0 14 7 11 14 -7z m916 -98 c0 -3 -4 -8 -10 -11
-5 -3 -10 -1 -10 4 0 6 5 11 10 11 6 0 10 -2 10 -4z m38 -48 c9 -33 -4 -72
-20 -62 -14 9 -8 -14 8 -30 26 -26 -2 -18 -36 10 -23 20 -28 29 -20 39 6 7 10
17 9 21 -3 20 2 35 10 30 5 -3 11 1 15 9 9 25 25 17 34 -17z m19 -70 c-3 -8
-6 -5 -6 6 -1 11 2 17 5 13 3 -3 4 -12 1 -19z m-967 -198 c0 -5 -5 -10 -11
-10 -5 0 -7 5 -4 10 3 6 8 10 11 10 2 0 4 -4 4 -10z m960 -25 c0 -8 -7 -15
-15 -15 -8 0 -15 5 -15 11 0 5 5 7 10 4 6 -3 10 -1 10 4 0 6 2 11 5 11 3 0 5
-7 5 -15z m-61 -102 c-5 -14 -10 -41 -11 -60 -1 -24 -5 -32 -15 -29 -7 3 -13
1 -13 -4 0 -6 9 -10 19 -10 11 0 22 -4 26 -10 3 -5 12 -7 20 -3 8 3 15 1 15
-5 0 -5 13 -12 29 -15 20 -4 30 -12 30 -24 -1 -10 2 -28 6 -40 7 -21 5 -21
-64 -17 -53 3 -77 0 -95 -11 -13 -9 -31 -13 -40 -9 -31 12 -14 104 24 131 11
8 20 23 20 33 0 10 4 21 8 24 5 3 7 20 4 37 -4 26 -2 31 11 26 9 -3 19 -2 22
3 12 19 14 9 4 -17z m981 -65 c0 -12 -3 -18 -7 -14 -11 10 -12 36 -2 36 5 0 9
-10 9 -22z m2 -92 c1 -30 2 -120 0 -200 l-3 -146 -30 0 c-16 0 -29 5 -29 10 0
9 13 14 31 12 11 -2 14 52 14 220 0 154 10 214 17 104z m-2432 25 c0 -6 -4
-13 -10 -16 -5 -3 -10 1 -10 9 0 9 5 16 10 16 6 0 10 -4 10 -9z m-3 -53 c-3
-8 -6 -5 -6 6 -1 11 2 17 5 13 3 -3 4 -12 1 -19z m3579 -125 c-11 -11 -17 4
-9 23 7 18 8 18 11 1 2 -10 1 -21 -2 -24z m-51 17 c3 -5 1 -10 -4 -10 -6 0
-11 5 -11 10 0 6 2 10 4 10 3 0 8 -4 11 -10z m-2286 -164 c13 -7 32 -11 43 -8
10 2 18 -1 18 -7 0 -6 19 -11 46 -11 25 0 43 -3 41 -7 -6 -10 -193 -1 -202 9
-11 10 2 38 17 38 7 -1 24 -7 37 -14z m-234 -16 c3 -5 2 -10 -4 -10 -5 0 -13
5 -16 10 -3 6 -2 10 4 10 5 0 13 -4 16 -10z m2595 -5 c0 -8 -4 -15 -10 -15 -5
0 -7 7 -4 15 4 8 8 15 10 15 2 0 4 -7 4 -15z m-2085 -15 c-3 -5 -14 -10 -23
-9 -14 0 -13 2 3 9 27 11 27 11 20 0z m555 -2 c0 -9 4 -8 10 2 6 9 13 11 18 5
7 -10 20 -13 112 -19 68 -4 73 -6 35 -15 -16 -4 -34 -5 -39 -3 -8 4 -105 11
-179 13 -9 0 -15 5 -11 10 3 6 12 8 20 5 8 -3 14 -1 14 4 0 6 5 10 10 10 6 0
10 -6 10 -12z m1533 -49 c-16 -15 -68 -15 -58 0 3 5 19 9 36 9 16 -1 26 -5 22
-9z m-135 -195 c124 -109 137 -129 126 -193 -4 -25 -7 -56 -7 -68 0 -13 -4
-23 -8 -23 -5 0 -9 -7 -9 -15 0 -9 -6 -12 -15 -9 -10 4 -15 0 -15 -15 0 -24
-18 -28 -26 -7 -7 19 -45 16 -61 -4 -11 -13 -12 -13 -13 1 0 9 -7 22 -15 29
-12 10 -16 9 -21 -4 -4 -10 0 -22 10 -29 26 -19 10 -47 -28 -48 -58 -3 -64 -4
-69 -9 -3 -3 8 -13 24 -22 17 -10 27 -13 24 -8 -3 6 -2 10 4 10 5 0 12 -4 16
-9 10 -18 77 2 108 31 61 56 76 56 61 1 -9 -33 -121 -78 -171 -68 -75 14 -95
14 -83 0 13 -16 82 -35 137 -38 24 -1 43 -5 43 -8 0 -9 -41 -27 -78 -34 -27
-6 -31 -9 -21 -21 18 -22 -16 -29 -70 -15 -49 13 -77 31 -63 40 15 9 -6 52
-27 58 -12 3 -17 11 -14 19 3 8 10 11 16 7 6 -4 7 -1 2 7 -6 10 -3 12 13 8 12
-4 25 -2 28 3 3 5 1 9 -4 9 -21 0 -62 55 -78 103 -17 54 -41 90 -54 82 -4 -3
-10 4 -13 16 -5 17 -3 18 9 8 18 -15 16 -17 38 56 10 33 24 68 31 79 8 10 11
24 9 31 -7 17 71 54 119 57 20 2 37 6 37 10 0 11 53 15 73 5 10 -5 26 -15 35
-23z m-2997 -14 c16 -16 29 -36 29 -44 0 -8 7 -16 15 -20 8 -3 14 -15 12 -28
-2 -26 -32 -52 -47 -43 -6 4 -10 -6 -10 -22 -1 -25 -2 -26 -14 -10 -17 23 -26
22 -26 -4 0 -11 5 -17 10 -14 6 3 10 1 10 -5 0 -6 5 -8 10 -5 6 3 10 2 10 -4
0 -5 18 -12 39 -16 41 -7 66 -35 31 -35 -10 0 -22 -9 -25 -20 -3 -11 -11 -20
-16 -20 -5 0 -9 -8 -9 -18 0 -19 -42 -62 -61 -62 -5 0 -7 -4 -4 -10 3 -5 1
-10 -4 -10 -6 0 -11 -7 -11 -15 0 -9 -10 -15 -27 -16 -16 -1 -41 -2 -56 -3
-15 -2 -30 1 -33 6 -3 4 -14 3 -25 -2 -13 -8 -19 -7 -19 0 0 7 -9 9 -22 5 -23
-7 -23 -7 -3 9 13 10 15 15 6 16 -11 0 -11 3 -1 15 7 8 10 24 7 36 -7 25 12
56 68 116 35 36 45 41 76 39 32 -3 37 0 35 18 -1 19 -6 22 -36 19 -48 -4 -61
-10 -54 -28 4 -10 0 -15 -10 -15 -9 0 -29 -13 -44 -30 -32 -33 -62 -39 -62
-12 0 13 2 14 9 4 5 -8 8 4 7 32 0 25 -3 43 -7 40 -4 -2 -10 0 -14 6 -3 5 0
10 7 10 8 0 6 5 -5 11 -9 6 -15 15 -12 20 4 5 11 7 16 4 5 -3 6 1 3 10 -12 31
5 61 48 82 77 37 92 42 137 42 36 1 49 -4 72 -29z m-274 -136 c-3 -4 -1 -16 5
-27 9 -17 8 -19 -7 -13 -15 5 -16 2 -11 -21 5 -21 4 -24 -4 -13 -15 22 -9 80
9 80 8 0 11 -3 8 -6z m2923 -116 c0 -4 -7 -8 -15 -8 -8 0 -15 4 -15 8 0 5 7 9
15 9 8 0 15 -4 15 -9z m25 -88 c3 -5 -1 -10 -10 -10 -9 0 -13 5 -10 10 3 6 8
10 10 10 2 0 7 -4 10 -10z m72 -67 c3 -7 -5 -11 -16 -10 -12 1 -21 6 -21 11 0
5 -8 18 -17 29 -18 19 -18 19 16 0 19 -10 36 -24 38 -30z m-92 27 c3 -6 -1 -7
-9 -4 -18 7 -21 14 -7 14 6 0 13 -4 16 -10z m-2601 -70 c4 -5 -14 -11 -40 -15
-27 -3 -57 -8 -66 -10 -10 -2 -18 1 -18 6 0 5 5 9 11 9 5 0 7 5 3 12 -4 7 -3
8 4 4 7 -4 20 -3 29 3 18 10 61 5 77 -9z m3004 -8 c2 -8 -3 -10 -14 -5 -14 5
-16 3 -10 -13 5 -14 4 -16 -4 -8 -13 13 -2 46 13 41 6 -2 13 -9 15 -15z
m-1718 -73 c0 -16 4 -29 9 -29 10 0 9 -26 -2 -36 -4 -4 -9 1 -13 10 -3 9 -11
13 -16 10 -6 -4 -6 -9 2 -14 7 -4 9 -13 5 -20 -6 -9 -9 -9 -16 1 -7 12 -7 2 0
-55 2 -15 41 26 41 43 0 12 3 11 14 -5 12 -17 13 -27 2 -57 -7 -21 -16 -34
-19 -30 -4 3 -7 1 -7 -4 0 -6 6 -14 13 -17 6 -4 1 -4 -11 -2 -27 5 -52 -2 -52
-14 0 -5 10 -6 22 -2 14 3 19 2 14 -6 -4 -7 -14 -12 -22 -12 -10 0 -12 -5 -8
-12 5 -9 2 -9 -9 1 -18 14 -22 5 -8 -18 5 -8 16 -11 25 -8 12 5 16 1 16 -15 0
-17 -2 -18 -15 -8 -9 7 -18 10 -22 6 -3 -3 -1 -6 6 -6 7 0 11 -6 8 -12 -2 -7
8 -21 22 -30 14 -10 20 -18 14 -18 -7 0 -13 -7 -13 -15 0 -8 5 -15 10 -15 6 0
10 5 10 12 0 6 3 8 7 5 3 -4 -4 -17 -17 -29 -22 -21 -23 -21 -16 -3 6 16 5 18
-5 7 -7 -6 -14 -31 -15 -55 -1 -23 -2 -45 -3 -49 -1 -5 -10 -8 -20 -8 -11 0
-23 -5 -27 -12 -5 -7 -3 -8 6 -3 8 5 11 3 8 -5 -6 -19 -28 -24 -28 -7 0 8 -7
18 -16 21 -8 3 -12 10 -9 16 4 6 12 7 18 4 7 -4 9 -4 5 0 -3 4 3 17 15 29 l22
22 -24 3 c-13 2 -28 -1 -35 -8 -8 -8 -6 -9 9 -4 16 6 18 4 8 -6 -10 -11 -16
-10 -33 5 -23 21 -24 17 -9 -22 17 -41 21 -85 8 -77 -6 3 -9 14 -6 24 3 11 -3
29 -11 42 -9 13 -17 44 -18 70 0 26 -4 51 -7 55 -17 16 -5 24 13 8 10 -9 19
-20 18 -24 -2 -22 4 -38 16 -38 15 0 17 17 4 27 -4 3 -1 17 6 30 7 14 9 32 5
40 -4 8 -10 24 -14 34 -7 25 -29 6 -30 -27 0 -12 -5 -22 -12 -22 -6 0 -15 -3
-19 -7 -11 -12 -34 -10 -34 2 0 6 14 13 31 17 20 4 27 9 20 16 -5 5 -7 16 -4
23 3 8 -1 14 -10 14 -10 0 -13 7 -10 20 8 28 19 33 37 14 15 -14 16 -13 16 13
0 22 2 25 10 13 10 -16 14 -8 11 23 -1 9 3 18 8 18 6 1 17 2 23 3 7 0 14 9 16
19 3 15 -8 22 -30 18 -23 -3 12 40 39 50 6 2 7 12 4 23 -6 16 -9 16 -22 5 -20
-19 -39 -22 -33 -5 3 8 1 17 -5 21 -6 3 -11 1 -11 -6 0 -7 -3 -9 -7 -6 -9 10
30 44 44 40 7 -3 9 -11 6 -19 -4 -10 0 -12 11 -8 14 5 14 9 0 35 -14 28 -14
29 8 30 13 1 31 1 41 0 9 -1 17 3 17 10 0 8 4 8 15 -1 8 -7 15 -25 15 -41z
m1430 25 c0 -17 -22 -14 -28 4 -2 7 3 12 12 12 9 0 16 -7 16 -16z m48 -69 c29
-9 52 -19 49 -21 -9 -10 -111 26 -131 46 l-21 22 25 -15 c14 -8 49 -22 78 -32z
m92 -25 c0 -5 -4 -10 -10 -10 -5 0 -10 5 -10 10 0 6 5 10 10 10 6 0 10 -4 10
-10z m-1716 -26 c8 -21 -12 -17 -24 6 -8 16 -8 18 4 14 8 -3 17 -12 20 -20z
m1886 -50 c0 -8 -5 -12 -10 -9 -6 4 -8 11 -5 16 9 14 15 11 15 -7z m1063 -14
c9 -11 13 -20 8 -20 -5 0 -7 -9 -4 -20 3 -12 0 -20 -7 -20 -9 0 -10 -3 -1 -14
6 -7 9 -21 5 -30 -3 -9 -1 -22 5 -30 6 -7 8 -16 5 -19 -4 -3 -6 -36 -6 -72 0
-50 -4 -67 -16 -75 -15 -8 -15 -11 -2 -20 13 -9 13 -11 0 -20 -11 -7 -16 -5
-18 10 -2 13 -9 17 -20 14 -13 -4 -13 -2 3 11 17 14 18 17 5 25 -22 14 -30 12
-23 -6 5 -14 3 -15 -14 -6 -32 17 -45 39 -46 76 -1 23 -5 32 -14 29 -16 -6
-17 -19 -3 -28 8 -5 8 -11 1 -19 -6 -7 -8 -16 -4 -19 3 -4 -1 -7 -10 -7 -8 0
-23 -7 -31 -16 -9 -8 -22 -12 -28 -9 -7 4 -4 -1 6 -9 18 -14 15 -20 -6 -17 -8
1 -23 -58 -19 -78 2 -11 0 -11 -12 0 -8 8 -12 18 -9 23 3 5 -3 6 -14 2 -15 -6
-17 -5 -6 5 17 18 15 40 -3 33 -11 -5 -13 -2 -8 12 4 12 3 15 -5 10 -8 -5 -10
-2 -6 9 4 8 2 21 -4 28 -10 13 -9 128 3 146 3 6 3 16 -1 23 -5 7 -3 8 5 4 8
-5 14 0 18 13 3 12 10 21 17 21 6 0 4 5 -4 11 -11 8 -12 12 -2 16 6 2 9 10 6
15 -4 7 -2 8 4 4 6 -3 15 1 20 10 6 11 12 13 16 6 4 -6 14 -9 24 -6 14 5 15 4
2 -5 -13 -10 -13 -12 0 -21 21 -14 28 -12 34 8 3 9 4 4 2 -11 -2 -16 3 -34 10
-42 8 -8 13 -20 12 -27 -2 -7 5 -12 15 -12 14 2 15 -1 6 -12 -9 -11 -8 -14 5
-14 9 0 16 5 16 10 0 6 7 10 16 10 8 0 12 5 9 11 -4 5 1 20 12 32 18 21 18 21
-1 7 -18 -14 -19 -14 -7 8 6 12 16 22 21 22 6 0 10 7 10 16 0 8 4 12 10 9 6
-3 7 1 4 9 -7 18 -24 11 -24 -10 0 -8 -5 -14 -11 -14 -10 0 -5 13 14 38 13 17
20 15 40 -8z m-2978 0 c3 -5 1 -10 -4 -10 -6 0 -11 5 -11 10 0 6 2 10 4 10 3
0 8 -4 11 -10z m-117 -74 c-14 -28 -23 -35 -15 -13 4 9 2 17 -3 17 -6 0 -5 9
2 20 16 26 31 4 16 -24z m-853 -37 c-5 -16 -4 -19 5 -14 9 5 10 2 5 -14 -4
-12 -2 -21 4 -21 13 0 14 -40 1 -60 -8 -13 -10 -13 -14 0 -3 8 -5 22 -4 30 3
33 -3 60 -12 60 -5 0 -7 -8 -4 -17 5 -14 4 -15 -4 -4 -7 10 -6 21 6 37 21 29
25 30 17 3z m1155 -14 c0 -8 -4 -15 -8 -15 -5 0 -9 7 -9 15 0 8 4 15 9 15 4 0
8 -7 8 -15z m1121 -18 c-8 -8 -11 -7 -11 4 0 20 13 34 18 19 3 -7 -1 -17 -7
-23z m-1394 -37 c1 -11 -2 -20 -8 -20 -5 0 -9 9 -9 20 0 11 4 20 8 20 4 0 8
-9 9 -20z m313 -66 c0 -13 -5 -24 -12 -24 -9 0 -9 -3 0 -12 16 -16 15 -28 -2
-28 -17 0 -29 27 -15 36 6 3 8 12 5 20 -7 18 4 45 15 38 5 -3 9 -16 9 -30z
m-310 -37 c3 -26 4 -47 2 -47 -13 0 -33 34 -31 53 2 12 0 28 -5 35 -6 10 -3
13 10 10 14 -2 20 -15 24 -51z m66 -20 c2 -17 -1 -25 -8 -21 -5 3 -8 15 -5 25
3 11 1 19 -4 19 -5 0 -9 -5 -9 -12 0 -6 -3 -9 -6 -5 -9 8 6 29 18 25 6 -2 12
-16 14 -31z m4684 12 c0 -18 -20 -18 -29 0 -9 16 -8 18 9 14 11 -3 20 -9 20
-14z m50 -19 c-20 -13 -50 -13 -50 0 0 6 15 10 33 10 24 0 28 -3 17 -10z m76
-3 c8 3 14 0 14 -5 0 -6 -19 -10 -42 -10 -40 0 -41 1 -17 13 13 8 25 10 27 5
2 -5 10 -6 18 -3z m82 -3 c46 -4 47 -4 33 -13 -8 -5 -11 -17 -6 -32 6 -22 5
-21 -13 4 -12 18 -22 25 -26 18 -4 -6 -13 -11 -19 -11 -7 0 -6 4 3 11 11 8 12
12 2 16 -6 2 -9 9 -6 15 4 6 9 6 13 2 3 -5 12 -9 19 -10z m262 6 c0 -5 -5 -10
-11 -10 -5 0 -7 5 -4 10 3 6 8 10 11 10 2 0 4 -4 4 -10z m-110 -12 c0 -4 9 -8
20 -8 11 0 20 -5 20 -11 0 -7 -9 -9 -22 -5 -13 3 -34 6 -48 7 -14 0 -19 3 -12
6 6 2 10 8 8 12 -3 4 4 7 15 7 10 0 19 -4 19 -8z m100 -22 c0 -8 -4 -17 -8
-20 -4 -2 -8 4 -8 15 0 10 4 19 8 19 4 0 8 -6 8 -14z m-360 0 c0 -3 -4 -8 -10
-11 -5 -3 -10 -1 -10 4 0 6 5 11 10 11 6 0 10 -2 10 -4z m220 -16 c0 -5 -2
-10 -4 -10 -3 0 -8 5 -11 10 -3 6 -1 10 4 10 6 0 11 -4 11 -10z m-115 -10 c3
-5 1 -10 -4 -10 -6 0 -11 5 -11 10 0 6 2 10 4 10 3 0 8 -4 11 -10z m178 3 c-7
-2 -19 -2 -25 0 -7 3 -2 5 12 5 14 0 19 -2 13 -5z m784 -28 c0 -10 -19 -14
-70 -17 -38 -2 -70 -1 -72 2 -2 3 -31 4 -66 3 -67 -1 -89 3 -89 19 0 6 6 5 15
-2 8 -7 15 -9 15 -4 0 8 143 9 216 1 23 -2 30 1 27 10 -3 8 0 11 9 8 8 -3 15
-12 15 -20z m-317 -3 c0 -4 -11 -8 -25 -8 -28 -2 -34 12 -7 19 19 4 32 0 32
-11z m-5404 -7 c4 -8 10 -12 15 -9 5 3 6 -1 3 -9 -6 -16 -34 -19 -51 -4 -15
11 -17 31 -3 22 6 -3 10 -1 10 4 0 16 20 13 26 -4z m5264 5 c8 -5 12 -11 10
-14 -3 -2 -14 2 -24 10 -22 15 -10 19 14 4z m74 -2 c-3 -4 -16 -8 -30 -8 -13
0 -24 4 -24 8 0 5 13 9 30 9 16 0 27 -4 24 -9z m-6382 -30 c-6 -6 -16 -7 -22
-3 -9 6 -9 9 1 16 17 10 34 0 21 -13z m1168 18 c0 -3 -4 -8 -10 -11 -5 -3 -10
-1 -10 4 0 6 5 11 10 11 6 0 10 -2 10 -4z m354 -68 c7 -5 5 -8 -6 -8 -14 0
-18 8 -17 33 2 27 2 28 6 7 3 -14 10 -28 17 -32z m4220 26 c24 -9 19 -23 -6
-17 -19 4 -20 3 -8 -6 9 -7 10 -11 3 -11 -6 0 -15 5 -18 10 -4 6 -12 8 -18 4
-7 -3 -3 2 7 10 23 18 20 18 40 10z m1043 -33 c1 -14 -3 -18 -13 -14 -11 4
-12 9 -3 19 15 18 14 18 16 -5z m-1207 -6 c0 -9 -6 -12 -15 -9 -8 4 -12 10 -9
15 8 14 24 10 24 -6z m1080 -19 c0 -2 -7 -6 -15 -10 -8 -3 -15 -1 -15 4 0 6 7
10 15 10 8 0 15 -2 15 -4z m105 -26 c3 -6 -1 -7 -9 -4 -18 7 -21 14 -7 14 6 0
13 -4 16 -10z m-112 -12 c15 -7 27 -17 27 -22 0 -4 -12 0 -27 9 -17 12 -28 14
-31 7 -2 -6 -10 -8 -18 -5 -13 5 -13 7 -2 14 17 11 19 11 51 -3z m-158 -8 c3
-5 1 -10 -4 -10 -6 0 -11 5 -11 10 0 6 2 10 4 10 3 0 8 -4 11 -10z m245 -11
c0 -14 -17 -10 -23 5 -4 10 -1 13 9 9 7 -3 14 -9 14 -14z m-6733 -11 c-3 -8
-6 -5 -6 6 -1 11 2 17 5 13 3 -3 4 -12 1 -19z m2277 -93 c-4 -8 -10 -15 -15
-15 -5 0 -9 7 -9 15 0 8 7 15 15 15 9 0 12 -6 9 -15z m3280 0 c-4 -8 -11 -12
-17 -8 -6 4 -8 0 -4 -10 3 -9 1 -19 -5 -23 -7 -4 -8 -3 -4 4 4 7 2 12 -3 12
-6 0 -11 -7 -11 -15 0 -8 -5 -15 -10 -15 -16 0 6 36 32 54 28 20 29 20 22 1z
m1171 -25 c3 -6 -1 -7 -9 -4 -18 7 -21 14 -7 14 6 0 13 -4 16 -10z m-7140
-227 c-6 -24 -8 -26 -16 -10 -6 10 -7 27 -4 38 10 32 29 6 20 -28z m1535 -277
c0 -8 -7 -16 -15 -20 -12 -4 -13 -2 -2 14 14 24 17 25 17 6z m146 -14 c1 -7 0
-8 -3 -2 -2 5 -9 8 -14 4 -5 -3 -9 0 -9 6 0 15 23 7 26 -8z m-256 -24 c0 7 5
12 11 12 6 0 9 -7 5 -15 -3 -8 -2 -15 3 -15 5 0 11 -10 14 -22 6 -21 5 -22 -7
-5 -11 14 -15 15 -20 5 -5 -10 -7 -10 -12 0 -3 6 -9 10 -14 7 -4 -3 -6 5 -2
17 3 14 1 19 -6 14 -8 -5 -10 -1 -5 10 6 16 7 15 20 -2 7 -10 13 -12 13 -6z
m255 -28 c-3 -5 -2 -10 4 -10 5 0 19 -15 31 -32 18 -27 18 -29 2 -11 -14 15
-22 19 -30 11 -17 -17 -39 -2 -39 26 0 19 5 26 19 26 10 0 16 -4 13 -10z m85
0 c0 -5 -2 -10 -4 -10 -3 0 -8 5 -11 10 -3 6 -1 10 4 10 6 0 11 -4 11 -10z
m-363 -26 c-3 -3 -12 -4 -19 -1 -8 3 -5 6 6 6 11 1 17 -2 13 -5z m-50 -41
c-11 -10 -26 8 -20 23 5 15 7 14 15 -1 6 -9 7 -19 5 -22z"/>
<path d="M5618 9666 c-24 -18 -42 -40 -42 -49 1 -9 -2 -15 -6 -14 -9 3 -60
-58 -60 -71 0 -6 -11 -32 -24 -57 -14 -25 -22 -53 -19 -60 3 -8 -2 -17 -10
-21 -9 -3 -16 -13 -16 -22 0 -31 -8 -67 -20 -90 -6 -12 -9 -22 -6 -22 3 0 0
-12 -8 -27 -15 -28 -33 -80 -56 -158 -6 -22 -13 -84 -14 -138 -2 -97 -2 -98
-25 -92 -19 5 -23 2 -20 -12 1 -10 -1 -24 -6 -31 -13 -21 4 -29 18 -9 18 24
29 21 21 -4 -5 -15 -4 -19 5 -14 9 6 9 3 2 -12 -8 -15 -5 -23 14 -42 13 -13
24 -27 24 -31 0 -10 -29 -22 -39 -15 -7 4 -7 -13 -2 -59 1 -5 8 -3 16 4 12 10
25 8 67 -13 29 -13 61 -27 71 -31 22 -7 49 17 42 36 -9 23 57 17 77 -7 19 -24
108 -31 108 -8 0 7 6 13 14 13 14 0 31 59 27 95 -4 33 -70 165 -83 165 -6 0
-9 2 -6 6 3 3 2 20 -2 39 -5 21 -3 38 4 46 8 9 7 11 -6 6 -10 -4 -18 -2 -18 3
0 6 3 10 8 10 4 0 7 40 8 89 0 50 -3 88 -6 86 -8 -5 1 68 10 80 17 23 29 74
18 77 -6 2 -4 10 5 20 9 8 13 18 10 21 -3 4 -2 14 2 24 5 10 9 27 10 38 1 11
7 32 13 47 14 34 11 68 -5 68 -7 0 -13 5 -13 11 0 5 5 7 10 4 6 -3 10 -2 10 4
0 5 -5 13 -11 16 -6 5 -4 12 8 21 15 11 15 14 3 15 -8 1 -19 1 -23 0 -5 -1 -7
6 -5 15 3 17 18 28 51 38 9 3 17 15 17 26 0 25 -16 26 -29 3 -8 -16 -10 -16
-16 -3 -10 27 -52 21 -97 -14z"/>
<path d="M3876 9445 c-3 -8 -1 -15 4 -15 13 0 22 18 11 24 -5 3 -11 -1 -15 -9z"/>
<path d="M3900 9345 c0 -22 5 -31 18 -32 11 -1 18 5 18 17 0 11 -2 17 -5 15
-2 -3 -10 3 -17 13 -12 15 -13 14 -14 -13z"/>
<path d="M3931 9274 c0 -11 3 -14 6 -6 3 7 2 16 -1 19 -3 4 -6 -2 -5 -13z"/>
<path d="M5847 9238 c-7 -20 3 -140 14 -158 9 -15 10 -1 10 109 0 45 -14 74
-24 49z"/>
<path d="M5227 8823 c-4 -3 -7 -11 -7 -17 0 -6 5 -5 12 2 6 6 9 14 7 17 -3 3
-9 2 -12 -2z"/>
<path d="M5270 8732 c0 -6 9 -12 20 -15 11 -3 20 -3 20 -1 0 2 -9 8 -20 14
-11 6 -20 7 -20 2z"/>
<path d="M5266 8693 c-6 -14 -5 -15 5 -6 7 7 10 15 7 18 -3 3 -9 -2 -12 -12z"/>
<path d="M5050 8610 c0 -5 5 -10 11 -10 5 0 7 5 4 10 -3 6 -8 10 -11 10 -2 0
-4 -4 -4 -10z"/>
<path d="M4643 8590 c-3 -11 -9 -17 -14 -14 -5 3 -9 0 -9 -5 0 -6 6 -11 13
-11 9 0 9 -2 -1 -9 -11 -7 -11 -11 1 -22 7 -8 17 -21 21 -29 3 -9 5 -6 2 7 -2
12 2 27 9 33 8 6 11 18 8 26 -3 8 0 14 6 14 6 0 8 7 5 15 -9 22 -35 18 -41 -5z"/>
<path d="M4571 8561 c25 -34 61 -59 43 -30 -5 8 -9 20 -10 27 -3 19 -14 28
-14 12 0 -9 -7 -7 -22 6 -20 17 -20 15 3 -15z"/>
<path d="M3711 8561 c-11 -7 -11 -9 0 -14 11 -4 11 -7 1 -14 -7 -5 -14 -19
-17 -31 -3 -19 -1 -21 16 -12 10 6 19 17 19 25 0 8 6 15 13 15 8 0 9 3 1 8 -6
4 -13 12 -15 19 -2 8 -9 9 -18 4z"/>
<path d="M5251 8500 c-1 -8 8 -26 19 -40 11 -14 20 -31 20 -37 0 -7 5 -13 10
-13 6 0 10 -6 9 -12 -4 -25 13 -66 29 -72 10 -4 29 -13 43 -21 14 -8 45 -17
69 -20 24 -3 49 -10 57 -17 11 -8 18 -6 35 12 21 22 21 23 3 36 -10 8 -41 14
-68 14 -29 0 -46 4 -42 10 3 6 23 10 44 10 47 0 74 24 39 34 -13 3 -42 6 -65
6 -46 0 -173 56 -173 75 0 6 -7 20 -15 31 -11 14 -14 15 -14 4z"/>
<path d="M4075 8400 c-4 -12 -5 -24 -2 -27 3 -2 8 5 12 17 4 12 5 24 2 27 -3
2 -8 -5 -12 -17z"/>
<path d="M3620 8351 c0 -6 4 -13 10 -16 6 -3 7 1 4 9 -7 18 -14 21 -14 7z"/>
<path d="M3594 8324 c3 -8 6 -20 6 -25 0 -6 5 -7 10 -4 15 10 12 32 -6 39 -12
5 -15 2 -10 -10z"/>
<path d="M3568 8203 c-10 -2 -18 -9 -18 -15 0 -5 -9 -23 -21 -40 -12 -16 -18
-32 -14 -36 9 -9 72 65 72 84 0 8 -1 13 -1 13 -1 -1 -9 -3 -18 -6z"/>
<path d="M5117 8140 c-8 -10 -41 -26 -74 -35 -92 -26 -164 -54 -190 -75 -13
-10 -31 -16 -40 -13 -11 4 -14 3 -9 -6 5 -7 -10 -28 -37 -54 -80 -75 -127
-195 -127 -322 0 -28 -5 -78 -11 -111 -6 -32 -12 -63 -12 -69 -2 -13 -39 -41
-49 -37 -12 3 -9 -16 3 -23 6 -5 2 -13 -13 -23 -13 -9 -27 -20 -33 -24 -5 -5
-19 -16 -30 -24 -19 -15 -18 -15 19 -10 44 6 89 32 81 47 -4 5 -3 9 2 8 24 -4
53 3 67 16 14 14 18 14 46 0 17 -9 39 -14 48 -11 10 3 42 -4 72 -15 30 -12 82
-31 115 -43 33 -11 62 -24 65 -28 3 -4 37 -13 76 -21 107 -23 211 -10 299 36
22 12 47 22 55 23 23 2 60 23 60 34 0 6 14 8 31 5 19 -4 28 -2 24 5 -3 5 1 10
9 10 8 0 20 9 26 20 6 11 16 17 22 14 7 -5 9 0 6 14 -5 19 -4 20 14 11 11 -6
22 -8 25 -6 2 3 22 -11 42 -31 25 -25 35 -41 29 -49 -5 -6 -5 -14 1 -17 6 -4
6 -18 1 -36 -5 -17 -9 -33 -9 -35 -1 -3 -1 -6 -2 -7 0 -2 -2 -16 -4 -33 -1
-16 -5 -55 -9 -85 -8 -68 5 -37 28 70 14 63 19 150 16 243 -1 11 7 25 16 31
14 11 15 18 6 46 -7 18 -12 52 -12 75 0 49 -17 152 -30 180 -5 11 -11 29 -13
40 -2 11 -9 19 -15 17 -7 -1 -12 7 -12 19 0 11 -4 18 -9 14 -5 -3 -17 9 -25
26 -18 35 -21 52 -6 29 6 -9 10 -10 10 -3 0 6 -8 18 -18 25 -9 7 -23 25 -29
41 -7 15 -16 26 -21 25 -4 -2 -20 9 -34 24 -14 15 -28 25 -31 21 -4 -3 -16 2
-26 11 -19 17 -20 17 -33 -3 -7 -12 -19 -21 -27 -21 -12 0 -12 3 -3 12 14 14
16 38 2 38 -5 0 -7 -6 -4 -13 3 -8 -2 -19 -9 -26 -12 -9 -16 -8 -21 5 -3 9 -4
20 0 25 3 5 0 9 -5 9 -6 0 -11 -6 -11 -14 0 -29 -19 -25 -60 14 -24 22 -45 38
-48 35 -3 -3 -12 1 -20 8 -13 9 -14 9 -8 0 4 -8 2 -13 -4 -13 -6 0 -9 -4 -6
-8 8 -14 -19 -10 -32 5 -9 8 -9 13 -2 13 6 0 9 4 5 9 -10 17 -81 10 -98 -9z
m-52 -74 c7 3 15 2 18 -3 3 -4 -7 -8 -22 -8 -17 -1 -28 5 -28 12 0 9 4 10 10
4 5 -5 15 -7 22 -5z m-55 -6 c0 -5 -5 -10 -11 -10 -5 0 -7 5 -4 10 3 6 8 10
11 10 2 0 4 -4 4 -10z m-36 -31 c-29 -12 -36 -10 -22 5 7 7 19 11 27 8 11 -4
10 -7 -5 -13z m211 -168 c4 -7 -5 -11 -22 -11 -36 0 -116 -37 -109 -49 3 -5
-8 -21 -25 -36 -24 -20 -29 -29 -20 -38 6 -6 11 -23 11 -38 0 -15 5 -31 10
-34 6 -3 7 -17 4 -31 -6 -24 12 -84 26 -84 3 0 20 -13 36 -30 16 -16 39 -30
51 -30 28 0 39 -17 16 -24 -33 -10 -112 -4 -124 10 -6 8 -16 14 -22 14 -5 0 7
-13 28 -30 20 -16 40 -28 44 -26 3 2 15 -5 26 -16 20 -20 20 -20 -5 -14 -14 3
-34 7 -45 9 -34 4 -95 45 -95 63 0 10 -3 14 -6 11 -10 -10 -41 35 -57 81 -23
65 -2 147 49 197 11 11 23 28 27 38 4 10 17 17 32 17 14 0 25 4 25 8 0 4 7 17
16 28 18 22 117 33 129 15z m48 2 c-7 -2 -19 -2 -25 0 -7 3 -2 5 12 5 14 0 19
-2 13 -5z m-63 -53 c12 -7 8 -10 -14 -10 -28 0 -29 -1 -11 -20 10 -11 21 -17
25 -15 4 3 15 -6 24 -19 14 -23 14 -26 -17 -59 -28 -29 -39 -34 -68 -30 -19 2
-42 4 -51 4 -33 0 -22 52 20 97 21 22 36 45 34 51 -5 14 38 14 58 1z m40 -4
c0 -3 -4 -8 -10 -11 -5 -3 -10 -1 -10 4 0 6 5 11 10 11 6 0 10 -2 10 -4z m81
-67 c11 -11 19 -23 17 -25 -3 -2 -15 7 -28 21 -28 30 -19 34 11 4z m56 -121
c-3 -8 -6 -5 -6 6 -1 11 2 17 5 13 3 -3 4 -12 1 -19z m-4 -48 c-7 -27 -49 -70
-68 -70 -10 0 -13 5 -9 12 4 7 3 8 -4 4 -6 -4 -9 -13 -6 -20 3 -8 1 -17 -5
-21 -27 -16 -7 34 29 77 40 47 73 56 63 18z m-120 -95 c-3 -9 -8 -14 -10 -11
-3 3 -2 9 2 15 9 16 15 13 8 -4z"/>
<path d="M3467 8056 c-4 -10 -1 -13 9 -9 15 6 19 23 5 23 -5 0 -11 -7 -14 -14z"/>
<path d="M3460 7874 c0 -8 5 -12 10 -9 6 4 8 11 5 16 -9 14 -15 11 -15 -7z"/>
<path d="M3480 7479 c0 -5 5 -7 10 -4 6 3 10 8 10 11 0 2 -4 4 -10 4 -5 0 -10
-5 -10 -11z"/>
<path d="M3490 7451 c0 -14 28 -59 52 -83 16 -16 17 -16 15 2 -1 10 -6 18 -11
17 -6 -1 -18 13 -27 31 -20 40 -29 50 -29 33z"/>
<path d="M3420 7438 c0 -9 5 -20 10 -23 13 -8 13 5 0 25 -8 13 -10 13 -10 -2z"/>
<path d="M5854 7243 c-4 -15 -8 -32 -8 -38 -1 -5 -5 -13 -11 -17 -5 -4 0 -6
13 -5 14 1 21 6 17 15 -2 7 1 22 7 32 9 14 9 23 2 30 -8 8 -14 4 -20 -17z"/>
<path d="M3346 7201 c10 -10 21 -14 23 -8 4 10 -17 27 -33 27 -5 0 -1 -8 10
-19z"/>
<path d="M4014 7199 c-10 -17 17 -59 43 -65 13 -4 23 -13 23 -21 0 -8 -4 -12
-8 -9 -4 2 -8 -4 -8 -15 0 -21 11 -25 21 -9 4 6 10 8 15 5 16 -10 3 48 -14 60
-9 7 -16 17 -16 22 0 10 -32 43 -43 43 -3 0 -9 -5 -13 -11z"/>
<path d="M4316 7183 c-3 -11 -18 -25 -32 -32 -16 -7 -24 -17 -21 -25 3 -8 0
-17 -7 -19 -8 -3 -18 -19 -24 -36 -10 -27 -9 -31 7 -31 11 0 21 6 24 13 2 6
24 18 48 25 24 7 55 21 68 31 20 15 22 21 12 40 -7 12 -18 20 -24 18 -6 -2
-19 6 -28 17 l-16 20 -7 -21z"/>
<path d="M3100 7169 c0 -5 5 -7 10 -4 6 3 10 8 10 11 0 2 -4 4 -10 4 -5 0 -10
-5 -10 -11z"/>
<path d="M3108 7035 c2 -47 7 -85 11 -85 9 0 2 152 -8 162 -3 4 -5 -31 -3 -77z"/>
<path d="M5611 7074 c0 -11 3 -14 6 -6 3 7 2 16 -1 19 -3 4 -6 -2 -5 -13z"/>
<path d="M5490 7042 c0 -5 11 -14 24 -20 20 -9 25 -8 30 5 4 11 2 14 -9 9 -8
-3 -15 -1 -15 4 0 6 -7 10 -15 10 -8 0 -15 -4 -15 -8z"/>
<path d="M5640 6963 c0 -26 1 -26 15 -7 19 25 19 34 0 34 -10 0 -15 -10 -15
-27z"/>
<path d="M5368 6960 c-14 -10 -28 -17 -31 -14 -8 9 -47 -6 -47 -17 0 -6 5 -7
12 -3 6 4 8 3 5 -3 -3 -5 -19 -8 -34 -6 -20 3 -37 -2 -53 -17 -17 -15 -19 -20
-8 -16 10 3 20 1 23 -3 2 -5 21 -12 41 -16 20 -3 45 -11 54 -18 13 -8 28 -8
52 -1 34 11 130 -6 98 -17 -13 -5 -12 -8 3 -23 22 -23 22 -25 -5 -19 -16 3
-19 2 -10 -4 7 -5 10 -17 6 -26 -4 -12 1 -18 20 -23 43 -10 93 45 61 68 -6 5
-5 8 3 8 19 0 44 28 37 40 -4 6 -1 9 7 8 7 -2 14 8 15 22 1 14 0 19 -3 13 -8
-19 -20 -16 -44 10 -14 14 -19 16 -15 6 4 -11 0 -18 -14 -22 -13 -3 -21 0 -21
8 0 8 -11 12 -28 11 -23 -2 -28 2 -30 22 -1 13 2 20 8 17 6 -4 8 -10 5 -15 -3
-4 4 -6 16 -3 14 4 17 9 10 16 -18 18 -49 18 -54 -1 -3 -11 -5 -9 -6 8 -1 20
-3 22 -11 10 -8 -13 -10 -12 -10 4 0 16 -2 17 -17 5 -11 -10 -14 -10 -9 -1 10
17 3 15 -26 -8z m-108 -70 c0 -5 -4 -10 -10 -10 -5 0 -10 5 -10 10 0 6 5 10
10 10 6 0 10 -4 10 -10z m273 -107 c3 -5 -1 -14 -9 -21 -12 -11 -14 -9 -14 8
0 20 14 27 23 13z"/>
<path d="M5246 6942 c-2 -4 4 -8 14 -8 10 0 16 4 14 8 -3 4 -9 8 -14 8 -5 0
-11 -4 -14 -8z"/>
<path d="M5115 6930 c-3 -4 5 -11 18 -15 l22 -7 -25 -8 c-25 -8 -22 -9 35 -16
27 -3 28 -1 13 10 -10 7 -18 18 -18 23 0 13 -38 24 -45 13z"/>
<path d="M5087 6830 c-28 -31 -47 -39 -47 -19 0 8 -5 8 -15 -1 -8 -7 -12 -17
-8 -23 4 -7 0 -8 -12 -3 -15 5 -16 4 -6 -8 10 -12 9 -17 -8 -28 -25 -15 -27
-28 -6 -28 8 0 15 -4 15 -10 0 -5 7 -10 16 -10 9 0 23 -8 30 -17 17 -23 18
-36 2 -27 -10 5 -10 4 -2 -5 6 -7 27 -16 46 -20 29 -7 37 -5 47 10 6 11 20 19
32 19 11 0 18 -4 14 -9 -10 -17 12 -21 26 -5 7 8 8 14 3 12 -5 -1 -19 3 -30
10 -12 6 -24 8 -28 4 -4 -3 -4 1 -1 10 4 9 1 19 -4 23 -6 3 -9 11 -6 16 4 5
-5 13 -19 19 -14 5 -26 12 -26 14 0 8 33 -6 57 -24 12 -10 19 -20 16 -24 -3
-3 1 -6 10 -6 20 0 22 11 5 28 -9 9 -9 12 1 12 7 0 15 -9 18 -20 4 -16 9 -18
19 -9 7 6 17 8 23 5 5 -3 12 1 15 10 5 14 9 12 26 -7 16 -20 19 -21 20 -7 0
12 6 16 18 12 13 -4 11 -1 -6 14 -15 14 -18 22 -10 25 10 4 10 8 -1 15 -7 5
-11 14 -8 18 3 5 -1 17 -8 27 -12 17 -14 17 -23 2 -5 -10 -24 -19 -42 -21 -18
-2 -30 -1 -27 3 12 11 -14 33 -39 33 -12 0 -26 5 -29 10 -10 16 -20 12 -48
-20z m34 -18 c-7 -2 -18 1 -23 6 -8 8 -4 9 13 5 13 -4 18 -8 10 -11z m-61 -34
c0 -6 -6 -5 -15 2 -8 7 -15 14 -15 16 0 2 7 1 15 -2 8 -4 15 -11 15 -16z m228
-5 c-2 -9 -10 -18 -18 -20 -12 -4 -13 -3 -1 5 7 5 10 15 7 21 -4 6 -2 11 4 11
6 0 10 -8 8 -17z m-253 -23 c3 -5 -1 -10 -10 -10 -9 0 -13 5 -10 10 3 6 8 10
10 10 2 0 7 -4 10 -10z m36 -63 c-1 -12 -15 -9 -19 4 -3 6 1 10 8 8 6 -3 11
-8 11 -12z m19 -37 c0 -5 -4 -10 -10 -10 -5 0 -10 5 -10 10 0 6 5 10 10 10 6
0 10 -4 10 -10z"/>
<path d="M4856 6731 c-14 -5 -16 -10 -8 -15 18 -11 14 -26 -5 -19 -11 4 -14 3
-9 -5 13 -22 34 -12 38 18 3 17 4 30 4 29 -1 0 -10 -4 -20 -8z"/>
<path d="M4880 6710 c0 -5 7 -7 15 -4 8 4 15 8 15 10 0 2 -7 4 -15 4 -8 0 -15
-4 -15 -10z"/>
<path d="M4921 6707 c-9 -11 -9 -17 -1 -22 8 -5 3 -12 -12 -20 -12 -6 -28 -8
-33 -4 -6 4 -17 4 -25 -1 -12 -8 -9 -10 10 -10 20 0 22 -2 10 -11 -12 -8 -10
-9 9 -4 17 5 22 4 16 -5 -5 -8 -4 -11 3 -6 6 4 9 13 5 21 -3 9 1 15 11 15 19
0 23 -49 5 -67 -7 -7 -6 -12 6 -17 10 -3 15 -1 13 7 -4 16 6 19 36 11 15 -4
23 -12 21 -22 -2 -9 -4 -20 -4 -24 -1 -5 -8 -8 -18 -8 -9 0 -14 -2 -11 -5 9
-9 58 6 52 16 -3 5 0 9 5 9 6 0 11 7 11 15 0 18 12 19 27 4 7 -7 12 -3 15 15
3 14 1 23 -3 20 -5 -3 -9 0 -9 5 0 6 -5 11 -11 11 -8 0 -8 -5 1 -15 7 -8 8
-15 2 -15 -16 0 -28 23 -27 52 0 15 -3 24 -8 21 -5 -3 -12 -1 -16 5 -3 5 -15
12 -26 14 -11 1 -25 9 -31 16 -8 12 -12 11 -23 -1z"/>
<path d="M5275 6690 c3 -5 8 -10 11 -10 2 0 4 5 4 10 0 6 -5 10 -11 10 -5 0
-7 -4 -4 -10z"/>
<path d="M4684 6655 c-4 -9 -13 -14 -20 -11 -8 3 -14 1 -14 -4 0 -5 -7 -16
-16 -24 -8 -9 -11 -16 -5 -16 5 0 13 5 16 11 8 12 45 -17 45 -35 0 -7 13 -19
29 -29 26 -15 31 -15 44 -3 11 11 17 12 26 3 8 -8 11 -8 11 1 0 13 31 5 41
-11 12 -17 85 -19 98 -4 9 12 8 16 -3 20 -10 4 -13 1 -9 -9 7 -18 -2 -18 -32
2 -13 8 -22 21 -19 28 3 7 -2 19 -11 26 -8 7 -15 18 -15 25 0 7 -7 16 -16 19
-9 4 -13 2 -8 -5 4 -7 -2 -7 -16 1 -18 10 -20 14 -9 21 9 6 10 9 2 9 -16 0
-26 -17 -13 -25 5 -3 10 -11 10 -17 0 -6 -9 -3 -20 7 -11 10 -17 23 -13 29 4
7 2 7 -8 -1 -16 -13 -36 -12 -57 0 -7 5 -15 2 -18 -8z"/>
<path d="M5426 6639 c-8 -19 -24 -43 -35 -53 -25 -23 -20 -35 14 -28 25 4 43
39 36 71 -2 13 -1 13 15 0 16 -13 16 -12 4 11 -19 36 -18 36 -34 -1z"/>
<path d="M5470 6659 c0 -5 5 -7 10 -4 6 3 10 8 10 11 0 2 -4 4 -10 4 -5 0 -10
-5 -10 -11z"/>
<path d="M4406 6641 c-5 -7 -3 -18 3 -24 14 -14 20 -6 11 17 -5 15 -9 16 -14
7z"/>
<path d="M4655 6591 c3 -5 -1 -11 -7 -13 -8 -3 -6 -9 7 -16 18 -9 21 -7 21 9
0 10 -6 21 -14 24 -7 2 -11 1 -7 -4z"/>
<path d="M5173 6589 c-18 -5 -33 -12 -33 -15 0 -8 44 1 65 14 23 13 13 14 -32
1z"/>
<path d="M4030 6579 c0 -5 5 -7 10 -4 6 3 10 8 10 11 0 2 -4 4 -10 4 -5 0 -10
-5 -10 -11z"/>
<path d="M4610 6570 c0 -5 5 -10 10 -10 6 0 10 5 10 10 0 6 -4 10 -10 10 -5 0
-10 -4 -10 -10z"/>
<path d="M5045 6550 c-3 -5 -1 -10 4 -10 6 0 11 5 11 10 0 6 -2 10 -4 10 -3 0
-8 -4 -11 -10z"/>
<path d="M5075 6550 c-3 -5 -1 -10 4 -10 6 0 11 5 11 10 0 6 -2 10 -4 10 -3 0
-8 -4 -11 -10z"/>
<path d="M5350 6526 c0 -2 7 -6 15 -10 8 -3 15 -1 15 4 0 6 -7 10 -15 10 -8 0
-15 -2 -15 -4z"/>
<path d="M3450 6381 c0 -6 4 -13 10 -16 6 -3 7 1 4 9 -7 18 -14 21 -14 7z"/>
<path d="M3504 6318 c-8 -12 52 -67 74 -68 7 0 11 -4 8 -9 -3 -5 9 -16 28 -25
35 -16 59 -21 41 -8 -6 4 -20 20 -32 35 -12 15 -24 28 -27 28 -25 -3 -34 2
-44 24 -8 17 -16 23 -28 18 -12 -4 -15 -3 -10 5 4 7 5 12 2 12 -3 0 -8 -5 -12
-12z"/>
<path d="M4776 6283 c-6 -14 -5 -15 5 -6 7 7 10 15 7 18 -3 3 -9 -2 -12 -12z"/>
<path d="M4355 6190 c3 -5 15 -10 26 -10 10 0 19 5 19 10 0 6 -12 10 -26 10
-14 0 -23 -4 -19 -10z"/>
<path d="M3707 6169 c7 -7 15 -10 18 -7 3 3 -2 9 -12 12 -14 6 -15 5 -6 -5z"/>
<path d="M4375 6160 c-4 -6 5 -10 20 -10 15 0 24 4 20 10 -3 6 -12 10 -20 10
-8 0 -17 -4 -20 -10z"/>
<path d="M4158 6048 c5 -5 16 -8 23 -6 8 3 3 7 -10 11 -17 4 -21 3 -13 -5z"/>
<path d="M4430 5640 c0 -5 5 -10 11 -10 5 0 7 5 4 10 -3 6 -8 10 -11 10 -2 0
-4 -4 -4 -10z"/>
<path d="M4506 5622 c-3 -5 1 -9 9 -9 8 0 12 4 9 9 -3 4 -7 8 -9 8 -2 0 -6 -4
-9 -8z"/>
<path d="M4447 5513 c-4 -3 -7 -11 -7 -17 0 -6 5 -5 12 2 6 6 9 14 7 17 -3 3
-9 2 -12 -2z"/>
<path d="M4395 5243 c-24 -6 -72 -43 -57 -43 6 0 9 -7 5 -15 -5 -14 7 -15 98
-10 57 4 126 8 152 10 33 1 52 8 62 21 11 16 11 20 -1 27 -16 9 -230 17 -259
10z"/>
<path d="M5730 5209 c0 -5 5 -7 10 -4 6 3 10 8 10 11 0 2 -4 4 -10 4 -5 0 -10
-5 -10 -11z"/>
<path d="M4700 5169 c0 -5 5 -7 10 -4 6 3 10 8 10 11 0 2 -4 4 -10 4 -5 0 -10
-5 -10 -11z"/>
<path d="M3606 5014 c-9 -24 -2 -26 12 -4 7 11 8 20 3 20 -5 0 -12 -7 -15 -16z"/>
<path d="M3890 4780 c-24 -15 -50 -148 -57 -294 -4 -106 -3 -140 7 -146 7 -4
107 -8 224 -9 116 -1 221 -3 233 -5 12 -3 140 -7 284 -10 143 -3 276 -8 295
-12 l34 -6 -5 88 c-3 49 -6 98 -7 109 -2 11 1 65 6 120 6 74 13 104 26 115 21
19 15 47 -6 29 -11 -9 -14 -8 -14 2 0 21 -939 21 -964 0 -18 -15 -18 -15 -32
11 -6 12 -14 14 -24 8z m428 -126 c24 -7 31 -34 8 -34 -8 0 -17 -7 -20 -16
-10 -26 -48 -13 -52 18 -2 25 3 30 36 37 3 0 15 -2 28 -5z m202 -44 c0 -5 -2
-10 -4 -10 -3 0 -8 5 -11 10 -3 6 -1 10 4 10 6 0 11 -4 11 -10z m-85 -50 c3
-5 1 -10 -4 -10 -6 0 -11 5 -11 10 0 6 2 10 4 10 3 0 8 -4 11 -10z m-30 -24
c0 -13 -3 -22 -7 -19 -5 2 -8 13 -8 24 0 10 3 19 8 19 4 0 7 -11 7 -24z m145
-76 c0 -5 -5 -10 -11 -10 -5 0 -7 5 -4 10 3 6 8 10 11 10 2 0 4 -4 4 -10z"/>
<path d="M6010 4710 c-8 -5 -12 -12 -9 -15 4 -3 12 1 19 10 14 17 11 19 -10 5z"/>
<path d="M6040 4705 c0 -8 2 -15 4 -15 2 0 6 7 10 15 3 8 1 15 -4 15 -6 0 -10
-7 -10 -15z"/>
<path d="M5885 4679 c-10 -15 3 -25 16 -12 7 7 7 13 1 17 -6 3 -14 1 -17 -5z"/>
<path d="M5787 4633 c-12 -12 -7 -22 8 -17 8 4 15 10 15 15 0 11 -14 12 -23 2z"/>
<path d="M3380 4595 c-7 -9 -11 -18 -8 -20 3 -3 11 1 18 10 7 9 11 18 8 20 -3
3 -11 -1 -18 -10z"/>
<path d="M5490 4385 c-7 -9 -10 -18 -7 -21 3 -3 10 4 17 15 13 25 8 27 -10 6z"/>
<path d="M3255 4357 c-4 -10 -5 -21 -1 -24 10 -10 18 4 13 24 -4 17 -4 17 -12
0z"/>
<path d="M3506 3705 c4 -8 8 -15 10 -15 2 0 4 7 4 15 0 8 -4 15 -10 15 -5 0
-7 -7 -4 -15z"/>
<path d="M3845 7539 c-4 -6 -5 -12 -2 -15 2 -3 7 2 10 11 7 17 1 20 -8 4z"/>
<path d="M3780 5955 c7 -9 15 -13 17 -11 7 7 -7 26 -19 26 -6 0 -6 -6 2 -15z"/>
<path d="M7310 4869 c0 -5 5 -7 10 -4 6 3 10 8 10 11 0 2 -4 4 -10 4 -5 0 -10
-5 -10 -11z"/>
<path d="M6403 3885 c0 -9 4 -14 9 -13 5 2 10 8 10 13 0 5 -5 11 -10 13 -5 1
-9 -4 -9 -13z"/>
<path d="M5660 3760 c0 -11 2 -20 4 -20 2 0 6 9 9 20 3 11 1 20 -4 20 -5 0 -9
-9 -9 -20z"/>
<path d="M3261 3064 c0 -11 3 -14 6 -6 3 7 2 16 -1 19 -3 4 -6 -2 -5 -13z"/>
<path d="M3271 2834 c0 -11 3 -14 6 -6 3 7 2 16 -1 19 -3 4 -6 -2 -5 -13z"/>
<path d="M2740 2820 c0 -5 5 -10 11 -10 5 0 7 5 4 10 -3 6 -8 10 -11 10 -2 0
-4 -4 -4 -10z"/>
<path d="M3160 2276 c0 -2 9 -6 20 -9 11 -3 18 -1 14 4 -5 9 -34 13 -34 5z"/>
<path d="M4208 3163 c7 -3 16 -2 19 1 4 3 -2 6 -13 5 -11 0 -14 -3 -6 -6z"/>
<path d="M4190 2621 c0 -14 18 -23 31 -15 8 4 7 9 -2 15 -18 11 -29 11 -29 0z"/>
<path d="M6252 1885 c3 -13 2 -22 -2 -20 -4 3 -11 -7 -15 -22 -3 -15 -14 -33
-23 -41 -15 -12 -14 -13 13 -9 27 5 28 4 10 -9 -10 -8 -14 -14 -8 -14 6 0 19
-3 29 -7 13 -5 16 -3 11 10 -3 9 -2 19 4 22 5 4 6 12 2 18 -12 18 -10 31 5 43
12 9 12 14 1 32 -18 29 -32 28 -27 -3z"/>
<path d="M6022 1744 c-21 -23 -8 -48 18 -34 14 8 20 8 20 0 0 -6 5 -8 10 -5
14 9 12 21 -6 39 -19 20 -25 19 -42 0z"/>
<path d="M6095 1730 c3 -5 8 -10 11 -10 2 0 4 5 4 10 0 6 -5 10 -11 10 -5 0
-7 -4 -4 -10z"/>
<path d="M6078 1553 c7 -3 16 -2 19 1 4 3 -2 6 -13 5 -11 0 -14 -3 -6 -6z"/>
<path d="M6040 1514 c0 -2 9 -8 20 -14 11 -6 20 -7 20 -2 0 6 -9 12 -20 15
-11 3 -20 3 -20 1z"/>
<path d="M3060 1650 c0 -5 5 -10 11 -10 5 0 7 5 4 10 -3 6 -8 10 -11 10 -2 0
-4 -4 -4 -10z"/>
<path d="M3090 1656 c0 -2 7 -6 15 -10 8 -3 15 -1 15 4 0 6 -7 10 -15 10 -8 0
-15 -2 -15 -4z"/>
<path d="M4530 1370 c-12 -8 -12 -10 3 -16 10 -3 21 -4 24 0 4 3 1 6 -6 6 -7
0 -9 5 -6 10 8 12 4 12 -15 0z"/>
<path d="M4500 1176 c0 -2 7 -7 16 -10 8 -3 12 -2 9 4 -6 10 -25 14 -25 6z"/>
<path d="M7265 1099 c-4 -6 -5 -12 -2 -15 2 -3 7 2 10 11 7 17 1 20 -8 4z"/>
<path d="M6291 1124 c0 -11 3 -14 6 -6 3 7 2 16 -1 19 -3 4 -6 -2 -5 -13z"/>
<path d="M5745 1019 c-4 -6 -5 -12 -2 -15 2 -3 7 2 10 11 7 17 1 20 -8 4z"/>
<path d="M5725 970 c3 -5 8 -10 11 -10 2 0 4 5 4 10 0 6 -5 10 -11 10 -5 0 -7
-4 -4 -10z"/>
<path d="M5726 919 c-8 -41 -8 -51 2 -45 8 5 16 76 9 76 -3 0 -7 -14 -11 -31z"/>
<path d="M3425 31 c-3 -5 -1 -12 5 -16 5 -3 10 1 10 9 0 18 -6 21 -15 7z"/>
</g>
</svg>
