<svg xmlns="http://www.w3.org/2000/svg" viewBox="0 0 64 64" data-ground="#6c8175 #38483f">
<!-- a bellows camera, photography being the first creative field technology "democratised". Rendered by scripts/render-thumbs.mjs. -->
<defs><style>.o{stroke-width:1.1}.t{stroke-width:.66}.o3{stroke-width:5.2}.o5{stroke-width:7.2}</style>
<linearGradient id="wd" x2="0" y2="1"><stop stop-color="#d9aa6c"/><stop offset="1" stop-color="#8e5c2a"/></linearGradient><linearGradient id="blw" x2="0" y2="1"><stop stop-color="#4a403c"/><stop offset="1" stop-color="#1c1715"/></linearGradient><linearGradient id="brs" x2="0" y2="1"><stop stop-color="#fbe3a0"/><stop offset="0.5" stop-color="#d7a53c"/><stop offset="1" stop-color="#8a6010"/></linearGradient><radialGradient id="lg2" cx="0.35" cy="0.3" r="0.8"><stop stop-color="#c9d6f2"/><stop offset="0.5" stop-color="#50609a"/><stop offset="1" stop-color="#141a33"/></radialGradient></defs>
<g transform="translate(-0.5 2.5)">
<g stroke="#3f250c" class="o" stroke-linejoin="round">
<path d="M4 51L9 47L61 47L56 51Z" fill="#e2bb86"/>
<path d="M56 51L61 47L61 51L56 55Z" fill="#7a4a1e"/>
<rect x="4" y="51" width="52" height="4" fill="url(#wd)"/></g>
<path d="M20 17L40 23V43L20 47Z" fill="url(#blw)" stroke="#0e0b0a" class="o" stroke-linejoin="round"/>
<path d="M22.6 18.38V45.88M25.2 19.16V45.36M27.8 19.94V44.84M30.4 20.72V44.32M33 21.5V43.8M35.6 22.28V43.28M38.2 23.06V42.76" stroke="#7d706a" stroke-width="1"/><path class="d" d="M22.6 18.38V45.88M25.2 19.16V45.36M27.8 19.94V44.84M30.4 20.72V44.32M33 21.5V43.8M35.6 22.28V43.28M38.2 23.06V42.76" stroke="#0e0b0a" stroke-width=".6" transform="translate(1.1 0)"/>
<g stroke="#3f250c" class="o" stroke-linejoin="round">
<path d="M9 15L12 12.5L23 12.5L20 15Z" fill="#ecc792"/>
<path d="M20 15L23 12.5L23 48.5L20 51Z" fill="#7a4a1e"/>
<rect x="9" y="15" width="11" height="36" fill="url(#wd)"/></g>
<rect x="11.5" y="18" width="6" height="30" fill="none" stroke="#6b3f14" stroke-width=".9"/>
<g stroke="#3f250c" class="o" stroke-linejoin="round">
<path d="M40 20L43 17.5L49 17.5L46 20Z" fill="#ecc792"/>
<path d="M46 20L49 17.5L49 48.5L46 51Z" fill="#7a4a1e"/>
<rect x="40" y="20" width="6" height="31" fill="url(#wd)"/></g>
<g stroke="#5a3d06" class="o" stroke-linejoin="round"><rect x="46" y="26" width="8" height="14" fill="url(#brs)"/><rect x="54" y="27.5" width="3" height="11" fill="url(#brs)"/></g>
<ellipse cx="57" cy="33" rx="1.8" ry="5.5" fill="url(#lg2)" stroke="#2a1d04" class="t"/>
<path class="d" d="M49 26v14M51.5 26v14" stroke="#8a6010" stroke-width=".7"/></g>
</svg>
